%TF.GenerationSoftware,KiCad,Pcbnew,5.1.9-73d0e3b20d~88~ubuntu20.04.1*%
%TF.CreationDate,2021-02-01T09:35:04+01:00*%
%TF.ProjectId,WemosSlimmemeter,57656d6f-7353-46c6-996d-6d656d657465,V1.0.0.0*%
%TF.SameCoordinates,Original*%
%TF.FileFunction,Legend,Top*%
%TF.FilePolarity,Positive*%
%FSLAX46Y46*%
G04 Gerber Fmt 4.6, Leading zero omitted, Abs format (unit mm)*
G04 Created by KiCad (PCBNEW 5.1.9-73d0e3b20d~88~ubuntu20.04.1) date 2021-02-01 09:35:04*
%MOMM*%
%LPD*%
G01*
G04 APERTURE LIST*
%ADD10C,0.150000*%
%ADD11C,0.200000*%
%ADD12C,0.120000*%
G04 APERTURE END LIST*
D10*
X76286285Y-54737428D02*
X77048190Y-54737428D01*
X76667238Y-55118380D02*
X76667238Y-54356476D01*
X78000571Y-54118380D02*
X77524380Y-54118380D01*
X77476761Y-54594571D01*
X77524380Y-54546952D01*
X77619619Y-54499333D01*
X77857714Y-54499333D01*
X77952952Y-54546952D01*
X78000571Y-54594571D01*
X78048190Y-54689809D01*
X78048190Y-54927904D01*
X78000571Y-55023142D01*
X77952952Y-55070761D01*
X77857714Y-55118380D01*
X77619619Y-55118380D01*
X77524380Y-55070761D01*
X77476761Y-55023142D01*
X78333904Y-54118380D02*
X78667238Y-55118380D01*
X79000571Y-54118380D01*
X95860095Y-54166000D02*
X95764857Y-54118380D01*
X95622000Y-54118380D01*
X95479142Y-54166000D01*
X95383904Y-54261238D01*
X95336285Y-54356476D01*
X95288666Y-54546952D01*
X95288666Y-54689809D01*
X95336285Y-54880285D01*
X95383904Y-54975523D01*
X95479142Y-55070761D01*
X95622000Y-55118380D01*
X95717238Y-55118380D01*
X95860095Y-55070761D01*
X95907714Y-55023142D01*
X95907714Y-54689809D01*
X95717238Y-54689809D01*
X96336285Y-55118380D02*
X96336285Y-54118380D01*
X96907714Y-55118380D01*
X96907714Y-54118380D01*
X97383904Y-55118380D02*
X97383904Y-54118380D01*
X97622000Y-54118380D01*
X97764857Y-54166000D01*
X97860095Y-54261238D01*
X97907714Y-54356476D01*
X97955333Y-54546952D01*
X97955333Y-54689809D01*
X97907714Y-54880285D01*
X97860095Y-54975523D01*
X97764857Y-55070761D01*
X97622000Y-55118380D01*
X97383904Y-55118380D01*
D11*
X81497857Y-62673571D02*
X81497857Y-61173571D01*
X82069285Y-61173571D01*
X82212142Y-61245000D01*
X82283571Y-61316428D01*
X82355000Y-61459285D01*
X82355000Y-61673571D01*
X82283571Y-61816428D01*
X82212142Y-61887857D01*
X82069285Y-61959285D01*
X81497857Y-61959285D01*
X83783571Y-62673571D02*
X82926428Y-62673571D01*
X83355000Y-62673571D02*
X83355000Y-61173571D01*
X83212142Y-61387857D01*
X83069285Y-61530714D01*
X82926428Y-61602142D01*
X84426428Y-62102142D02*
X85569285Y-62102142D01*
X86283571Y-62673571D02*
X86283571Y-61673571D01*
X86283571Y-61816428D02*
X86355000Y-61745000D01*
X86497857Y-61673571D01*
X86712142Y-61673571D01*
X86855000Y-61745000D01*
X86926428Y-61887857D01*
X86926428Y-62673571D01*
X86926428Y-61887857D02*
X86997857Y-61745000D01*
X87140714Y-61673571D01*
X87355000Y-61673571D01*
X87497857Y-61745000D01*
X87569285Y-61887857D01*
X87569285Y-62673571D01*
X88497857Y-62673571D02*
X88355000Y-62602142D01*
X88283571Y-62530714D01*
X88212142Y-62387857D01*
X88212142Y-61959285D01*
X88283571Y-61816428D01*
X88355000Y-61745000D01*
X88497857Y-61673571D01*
X88712142Y-61673571D01*
X88855000Y-61745000D01*
X88926428Y-61816428D01*
X88997857Y-61959285D01*
X88997857Y-62387857D01*
X88926428Y-62530714D01*
X88855000Y-62602142D01*
X88712142Y-62673571D01*
X88497857Y-62673571D01*
X90283571Y-62673571D02*
X90283571Y-61173571D01*
X90283571Y-62602142D02*
X90140714Y-62673571D01*
X89855000Y-62673571D01*
X89712142Y-62602142D01*
X89640714Y-62530714D01*
X89569285Y-62387857D01*
X89569285Y-61959285D01*
X89640714Y-61816428D01*
X89712142Y-61745000D01*
X89855000Y-61673571D01*
X90140714Y-61673571D01*
X90283571Y-61745000D01*
X91640714Y-61673571D02*
X91640714Y-62673571D01*
X90997857Y-61673571D02*
X90997857Y-62459285D01*
X91069285Y-62602142D01*
X91212142Y-62673571D01*
X91426428Y-62673571D01*
X91569285Y-62602142D01*
X91640714Y-62530714D01*
X92569285Y-62673571D02*
X92426428Y-62602142D01*
X92355000Y-62459285D01*
X92355000Y-61173571D01*
X93712142Y-62602142D02*
X93569285Y-62673571D01*
X93283571Y-62673571D01*
X93140714Y-62602142D01*
X93069285Y-62459285D01*
X93069285Y-61887857D01*
X93140714Y-61745000D01*
X93283571Y-61673571D01*
X93569285Y-61673571D01*
X93712142Y-61745000D01*
X93783571Y-61887857D01*
X93783571Y-62030714D01*
X93069285Y-62173571D01*
X79676428Y-63623571D02*
X80176428Y-65123571D01*
X80676428Y-63623571D01*
X81962142Y-65123571D02*
X81105000Y-65123571D01*
X81533571Y-65123571D02*
X81533571Y-63623571D01*
X81390714Y-63837857D01*
X81247857Y-63980714D01*
X81105000Y-64052142D01*
X82605000Y-64980714D02*
X82676428Y-65052142D01*
X82605000Y-65123571D01*
X82533571Y-65052142D01*
X82605000Y-64980714D01*
X82605000Y-65123571D01*
X83605000Y-63623571D02*
X83747857Y-63623571D01*
X83890714Y-63695000D01*
X83962142Y-63766428D01*
X84033571Y-63909285D01*
X84105000Y-64195000D01*
X84105000Y-64552142D01*
X84033571Y-64837857D01*
X83962142Y-64980714D01*
X83890714Y-65052142D01*
X83747857Y-65123571D01*
X83605000Y-65123571D01*
X83462142Y-65052142D01*
X83390714Y-64980714D01*
X83319285Y-64837857D01*
X83247857Y-64552142D01*
X83247857Y-64195000D01*
X83319285Y-63909285D01*
X83390714Y-63766428D01*
X83462142Y-63695000D01*
X83605000Y-63623571D01*
X84747857Y-64980714D02*
X84819285Y-65052142D01*
X84747857Y-65123571D01*
X84676428Y-65052142D01*
X84747857Y-64980714D01*
X84747857Y-65123571D01*
X85747857Y-63623571D02*
X85890714Y-63623571D01*
X86033571Y-63695000D01*
X86105000Y-63766428D01*
X86176428Y-63909285D01*
X86247857Y-64195000D01*
X86247857Y-64552142D01*
X86176428Y-64837857D01*
X86105000Y-64980714D01*
X86033571Y-65052142D01*
X85890714Y-65123571D01*
X85747857Y-65123571D01*
X85605000Y-65052142D01*
X85533571Y-64980714D01*
X85462142Y-64837857D01*
X85390714Y-64552142D01*
X85390714Y-64195000D01*
X85462142Y-63909285D01*
X85533571Y-63766428D01*
X85605000Y-63695000D01*
X85747857Y-63623571D01*
X90247857Y-63766428D02*
X90319285Y-63695000D01*
X90462142Y-63623571D01*
X90819285Y-63623571D01*
X90962142Y-63695000D01*
X91033571Y-63766428D01*
X91105000Y-63909285D01*
X91105000Y-64052142D01*
X91033571Y-64266428D01*
X90176428Y-65123571D01*
X91105000Y-65123571D01*
X92033571Y-63623571D02*
X92176428Y-63623571D01*
X92319285Y-63695000D01*
X92390714Y-63766428D01*
X92462142Y-63909285D01*
X92533571Y-64195000D01*
X92533571Y-64552142D01*
X92462142Y-64837857D01*
X92390714Y-64980714D01*
X92319285Y-65052142D01*
X92176428Y-65123571D01*
X92033571Y-65123571D01*
X91890714Y-65052142D01*
X91819285Y-64980714D01*
X91747857Y-64837857D01*
X91676428Y-64552142D01*
X91676428Y-64195000D01*
X91747857Y-63909285D01*
X91819285Y-63766428D01*
X91890714Y-63695000D01*
X92033571Y-63623571D01*
X93105000Y-63766428D02*
X93176428Y-63695000D01*
X93319285Y-63623571D01*
X93676428Y-63623571D01*
X93819285Y-63695000D01*
X93890714Y-63766428D01*
X93962142Y-63909285D01*
X93962142Y-64052142D01*
X93890714Y-64266428D01*
X93033571Y-65123571D01*
X93962142Y-65123571D01*
X95390714Y-65123571D02*
X94533571Y-65123571D01*
X94962142Y-65123571D02*
X94962142Y-63623571D01*
X94819285Y-63837857D01*
X94676428Y-63980714D01*
X94533571Y-64052142D01*
X79783571Y-67573571D02*
X79783571Y-66073571D01*
X79783571Y-66787857D02*
X80640714Y-66787857D01*
X80640714Y-67573571D02*
X80640714Y-66073571D01*
X81997857Y-67573571D02*
X81997857Y-66787857D01*
X81926428Y-66645000D01*
X81783571Y-66573571D01*
X81497857Y-66573571D01*
X81355000Y-66645000D01*
X81997857Y-67502142D02*
X81855000Y-67573571D01*
X81497857Y-67573571D01*
X81355000Y-67502142D01*
X81283571Y-67359285D01*
X81283571Y-67216428D01*
X81355000Y-67073571D01*
X81497857Y-67002142D01*
X81855000Y-67002142D01*
X81997857Y-66930714D01*
X82712142Y-66573571D02*
X82712142Y-67573571D01*
X82712142Y-66716428D02*
X82783571Y-66645000D01*
X82926428Y-66573571D01*
X83140714Y-66573571D01*
X83283571Y-66645000D01*
X83355000Y-66787857D01*
X83355000Y-67573571D01*
X83997857Y-67502142D02*
X84140714Y-67573571D01*
X84426428Y-67573571D01*
X84569285Y-67502142D01*
X84640714Y-67359285D01*
X84640714Y-67287857D01*
X84569285Y-67145000D01*
X84426428Y-67073571D01*
X84212142Y-67073571D01*
X84069285Y-67002142D01*
X83997857Y-66859285D01*
X83997857Y-66787857D01*
X84069285Y-66645000D01*
X84212142Y-66573571D01*
X84426428Y-66573571D01*
X84569285Y-66645000D01*
X86926428Y-66787857D02*
X87140714Y-66859285D01*
X87212142Y-66930714D01*
X87283571Y-67073571D01*
X87283571Y-67287857D01*
X87212142Y-67430714D01*
X87140714Y-67502142D01*
X86997857Y-67573571D01*
X86426428Y-67573571D01*
X86426428Y-66073571D01*
X86926428Y-66073571D01*
X87069285Y-66145000D01*
X87140714Y-66216428D01*
X87212142Y-66359285D01*
X87212142Y-66502142D01*
X87140714Y-66645000D01*
X87069285Y-66716428D01*
X86926428Y-66787857D01*
X86426428Y-66787857D01*
X88497857Y-67502142D02*
X88355000Y-67573571D01*
X88069285Y-67573571D01*
X87926428Y-67502142D01*
X87855000Y-67359285D01*
X87855000Y-66787857D01*
X87926428Y-66645000D01*
X88069285Y-66573571D01*
X88355000Y-66573571D01*
X88497857Y-66645000D01*
X88569285Y-66787857D01*
X88569285Y-66930714D01*
X87855000Y-67073571D01*
X89783571Y-67502142D02*
X89640714Y-67573571D01*
X89355000Y-67573571D01*
X89212142Y-67502142D01*
X89140714Y-67359285D01*
X89140714Y-66787857D01*
X89212142Y-66645000D01*
X89355000Y-66573571D01*
X89640714Y-66573571D01*
X89783571Y-66645000D01*
X89855000Y-66787857D01*
X89855000Y-66930714D01*
X89140714Y-67073571D01*
X90497857Y-67573571D02*
X90497857Y-66573571D01*
X90497857Y-66859285D02*
X90569285Y-66716428D01*
X90640714Y-66645000D01*
X90783571Y-66573571D01*
X90926428Y-66573571D01*
X91426428Y-67573571D02*
X91426428Y-66573571D01*
X91426428Y-66716428D02*
X91497857Y-66645000D01*
X91640714Y-66573571D01*
X91855000Y-66573571D01*
X91997857Y-66645000D01*
X92069285Y-66787857D01*
X92069285Y-67573571D01*
X92069285Y-66787857D02*
X92140714Y-66645000D01*
X92283571Y-66573571D01*
X92497857Y-66573571D01*
X92640714Y-66645000D01*
X92712142Y-66787857D01*
X92712142Y-67573571D01*
X94069285Y-67573571D02*
X94069285Y-66787857D01*
X93997857Y-66645000D01*
X93855000Y-66573571D01*
X93569285Y-66573571D01*
X93426428Y-66645000D01*
X94069285Y-67502142D02*
X93926428Y-67573571D01*
X93569285Y-67573571D01*
X93426428Y-67502142D01*
X93355000Y-67359285D01*
X93355000Y-67216428D01*
X93426428Y-67073571D01*
X93569285Y-67002142D01*
X93926428Y-67002142D01*
X94069285Y-66930714D01*
X94783571Y-66573571D02*
X94783571Y-67573571D01*
X94783571Y-66716428D02*
X94855000Y-66645000D01*
X94997857Y-66573571D01*
X95212142Y-66573571D01*
X95355000Y-66645000D01*
X95426428Y-66787857D01*
X95426428Y-67573571D01*
D12*
%TO.C,J3*%
X94930500Y-51102500D02*
X79350500Y-51102500D01*
X79350500Y-51102500D02*
X79350500Y-58102500D01*
X94930500Y-51102500D02*
X94930500Y-58102500D01*
X94930500Y-58102500D02*
X79350500Y-58102500D01*
%TO.C,R1*%
X80910500Y-79907500D02*
X80580500Y-79907500D01*
X80910500Y-86447500D02*
X80910500Y-79907500D01*
X80580500Y-86447500D02*
X80910500Y-86447500D01*
X78170500Y-79907500D02*
X78500500Y-79907500D01*
X78170500Y-86447500D02*
X78170500Y-79907500D01*
X78500500Y-86447500D02*
X78170500Y-86447500D01*
%TO.C,D2*%
X89500500Y-83847500D02*
X92440500Y-83847500D01*
X89500500Y-83607500D02*
X92440500Y-83607500D01*
X89500500Y-83727500D02*
X92440500Y-83727500D01*
X90970500Y-78167500D02*
X90970500Y-79187500D01*
X90970500Y-85647500D02*
X90970500Y-84627500D01*
X89500500Y-79187500D02*
X89500500Y-84627500D01*
X92440500Y-79187500D02*
X89500500Y-79187500D01*
X92440500Y-84627500D02*
X92440500Y-79187500D01*
X89500500Y-84627500D02*
X92440500Y-84627500D01*
%TO.C,D1*%
X93310500Y-83847500D02*
X96250500Y-83847500D01*
X93310500Y-83607500D02*
X96250500Y-83607500D01*
X93310500Y-83727500D02*
X96250500Y-83727500D01*
X94780500Y-78167500D02*
X94780500Y-79187500D01*
X94780500Y-85647500D02*
X94780500Y-84627500D01*
X93310500Y-79187500D02*
X93310500Y-84627500D01*
X96250500Y-79187500D02*
X93310500Y-79187500D01*
X96250500Y-84627500D02*
X96250500Y-79187500D01*
X93310500Y-84627500D02*
X96250500Y-84627500D01*
%TO.C,J2*%
X95475500Y-71052500D02*
X95475500Y-72382500D01*
X94145500Y-71052500D02*
X95475500Y-71052500D01*
X92875500Y-71052500D02*
X92875500Y-73712500D01*
X92875500Y-73712500D02*
X90275500Y-73712500D01*
X92875500Y-71052500D02*
X90275500Y-71052500D01*
X90275500Y-71052500D02*
X90275500Y-73712500D01*
%TO.C,U1*%
X76770500Y-88427500D02*
X76770500Y-95327500D01*
X74230500Y-88427500D02*
X76770500Y-88427500D01*
D10*
G36*
X73190500Y-68572500D02*
G01*
X73190500Y-69842500D01*
X73825500Y-69207500D01*
X73190500Y-68572500D01*
G37*
X73190500Y-68572500D02*
X73190500Y-69842500D01*
X73825500Y-69207500D01*
X73190500Y-68572500D01*
D12*
X97970500Y-60867500D02*
X76360500Y-60867500D01*
X100090500Y-95327500D02*
X100090500Y-62997500D01*
X74230500Y-88427500D02*
X74230500Y-62997500D01*
X76770500Y-95327500D02*
X100090500Y-95327500D01*
X97960500Y-60867500D02*
G75*
G02*
X100090500Y-62997500I0J-2130000D01*
G01*
X74230500Y-62997500D02*
G75*
G02*
X76360500Y-60867500I2130000J0D01*
G01*
%TO.C,R3*%
X85790500Y-86447500D02*
X86120500Y-86447500D01*
X85790500Y-79907500D02*
X85790500Y-86447500D01*
X86120500Y-79907500D02*
X85790500Y-79907500D01*
X88530500Y-86447500D02*
X88200500Y-86447500D01*
X88530500Y-79907500D02*
X88530500Y-86447500D01*
X88200500Y-79907500D02*
X88530500Y-79907500D01*
%TO.C,R2*%
X84720500Y-79907500D02*
X84390500Y-79907500D01*
X84720500Y-86447500D02*
X84720500Y-79907500D01*
X84390500Y-86447500D02*
X84720500Y-86447500D01*
X81980500Y-79907500D02*
X82310500Y-79907500D01*
X81980500Y-86447500D02*
X81980500Y-79907500D01*
X82310500Y-86447500D02*
X81980500Y-86447500D01*
%TO.C,Q1*%
X79010500Y-76137500D02*
X82610500Y-76137500D01*
X82648978Y-76125978D02*
G75*
G03*
X80810500Y-71687500I-1838478J1838478D01*
G01*
X78972022Y-76125978D02*
G75*
G02*
X80810500Y-71687500I1838478J1838478D01*
G01*
%TO.C,J1*%
X95123000Y-92329000D02*
X95123000Y-93599000D01*
X93853000Y-92329000D02*
X95123000Y-92329000D01*
X80773000Y-94641929D02*
X80773000Y-95039000D01*
X81533000Y-94641929D02*
X81533000Y-95039000D01*
X80773000Y-103699000D02*
X80773000Y-97699000D01*
X81533000Y-103699000D02*
X80773000Y-103699000D01*
X81533000Y-97699000D02*
X81533000Y-103699000D01*
X82423000Y-95039000D02*
X82423000Y-97699000D01*
X83313000Y-94641929D02*
X83313000Y-95039000D01*
X84073000Y-94641929D02*
X84073000Y-95039000D01*
X83313000Y-103699000D02*
X83313000Y-97699000D01*
X84073000Y-103699000D02*
X83313000Y-103699000D01*
X84073000Y-97699000D02*
X84073000Y-103699000D01*
X84963000Y-95039000D02*
X84963000Y-97699000D01*
X85853000Y-94641929D02*
X85853000Y-95039000D01*
X86613000Y-94641929D02*
X86613000Y-95039000D01*
X85853000Y-103699000D02*
X85853000Y-97699000D01*
X86613000Y-103699000D02*
X85853000Y-103699000D01*
X86613000Y-97699000D02*
X86613000Y-103699000D01*
X87503000Y-95039000D02*
X87503000Y-97699000D01*
X88393000Y-94641929D02*
X88393000Y-95039000D01*
X89153000Y-94641929D02*
X89153000Y-95039000D01*
X88393000Y-103699000D02*
X88393000Y-97699000D01*
X89153000Y-103699000D02*
X88393000Y-103699000D01*
X89153000Y-97699000D02*
X89153000Y-103699000D01*
X90043000Y-95039000D02*
X90043000Y-97699000D01*
X90933000Y-94641929D02*
X90933000Y-95039000D01*
X91693000Y-94641929D02*
X91693000Y-95039000D01*
X90933000Y-103699000D02*
X90933000Y-97699000D01*
X91693000Y-103699000D02*
X90933000Y-103699000D01*
X91693000Y-97699000D02*
X91693000Y-103699000D01*
X92583000Y-95039000D02*
X92583000Y-97699000D01*
X93473000Y-94709000D02*
X93473000Y-95039000D01*
X94233000Y-94709000D02*
X94233000Y-95039000D01*
X93573000Y-97699000D02*
X93573000Y-103699000D01*
X93693000Y-97699000D02*
X93693000Y-103699000D01*
X93813000Y-97699000D02*
X93813000Y-103699000D01*
X93933000Y-97699000D02*
X93933000Y-103699000D01*
X94053000Y-97699000D02*
X94053000Y-103699000D01*
X94173000Y-97699000D02*
X94173000Y-103699000D01*
X93473000Y-103699000D02*
X93473000Y-97699000D01*
X94233000Y-103699000D02*
X93473000Y-103699000D01*
X94233000Y-97699000D02*
X94233000Y-103699000D01*
X95183000Y-97699000D02*
X95183000Y-95039000D01*
X79823000Y-97699000D02*
X95183000Y-97699000D01*
X79823000Y-95039000D02*
X79823000Y-97699000D01*
X95183000Y-95039000D02*
X79823000Y-95039000D01*
%TO.C,J3*%
D10*
X77810166Y-56721880D02*
X77810166Y-57436166D01*
X77762547Y-57579023D01*
X77667309Y-57674261D01*
X77524452Y-57721880D01*
X77429214Y-57721880D01*
X78191119Y-56721880D02*
X78810166Y-56721880D01*
X78476833Y-57102833D01*
X78619690Y-57102833D01*
X78714928Y-57150452D01*
X78762547Y-57198071D01*
X78810166Y-57293309D01*
X78810166Y-57531404D01*
X78762547Y-57626642D01*
X78714928Y-57674261D01*
X78619690Y-57721880D01*
X78333976Y-57721880D01*
X78238738Y-57674261D01*
X78191119Y-57626642D01*
X83597023Y-58912571D02*
X83930357Y-58912571D01*
X84073214Y-59436380D02*
X83597023Y-59436380D01*
X83597023Y-58436380D01*
X84073214Y-58436380D01*
X84406547Y-59436380D02*
X84930357Y-58769714D01*
X84406547Y-58769714D02*
X84930357Y-59436380D01*
X85168452Y-58769714D02*
X85549404Y-58769714D01*
X85311309Y-58436380D02*
X85311309Y-59293523D01*
X85358928Y-59388761D01*
X85454166Y-59436380D01*
X85549404Y-59436380D01*
X85882738Y-59341142D02*
X85930357Y-59388761D01*
X85882738Y-59436380D01*
X85835119Y-59388761D01*
X85882738Y-59341142D01*
X85882738Y-59436380D01*
X87120833Y-58769714D02*
X87120833Y-59769714D01*
X87120833Y-58817333D02*
X87216071Y-58769714D01*
X87406547Y-58769714D01*
X87501785Y-58817333D01*
X87549404Y-58864952D01*
X87597023Y-58960190D01*
X87597023Y-59245904D01*
X87549404Y-59341142D01*
X87501785Y-59388761D01*
X87406547Y-59436380D01*
X87216071Y-59436380D01*
X87120833Y-59388761D01*
X88168452Y-59436380D02*
X88073214Y-59388761D01*
X88025595Y-59341142D01*
X87977976Y-59245904D01*
X87977976Y-58960190D01*
X88025595Y-58864952D01*
X88073214Y-58817333D01*
X88168452Y-58769714D01*
X88311309Y-58769714D01*
X88406547Y-58817333D01*
X88454166Y-58864952D01*
X88501785Y-58960190D01*
X88501785Y-59245904D01*
X88454166Y-59341142D01*
X88406547Y-59388761D01*
X88311309Y-59436380D01*
X88168452Y-59436380D01*
X88835119Y-58769714D02*
X89025595Y-59436380D01*
X89216071Y-58960190D01*
X89406547Y-59436380D01*
X89597023Y-58769714D01*
X90358928Y-59388761D02*
X90263690Y-59436380D01*
X90073214Y-59436380D01*
X89977976Y-59388761D01*
X89930357Y-59293523D01*
X89930357Y-58912571D01*
X89977976Y-58817333D01*
X90073214Y-58769714D01*
X90263690Y-58769714D01*
X90358928Y-58817333D01*
X90406547Y-58912571D01*
X90406547Y-59007809D01*
X89930357Y-59103047D01*
X90835119Y-59436380D02*
X90835119Y-58769714D01*
X90835119Y-58960190D02*
X90882738Y-58864952D01*
X90930357Y-58817333D01*
X91025595Y-58769714D01*
X91120833Y-58769714D01*
%TO.C,R1*%
X79373833Y-89344880D02*
X79040500Y-88868690D01*
X78802404Y-89344880D02*
X78802404Y-88344880D01*
X79183357Y-88344880D01*
X79278595Y-88392500D01*
X79326214Y-88440119D01*
X79373833Y-88535357D01*
X79373833Y-88678214D01*
X79326214Y-88773452D01*
X79278595Y-88821071D01*
X79183357Y-88868690D01*
X78802404Y-88868690D01*
X80326214Y-89344880D02*
X79754785Y-89344880D01*
X80040500Y-89344880D02*
X80040500Y-88344880D01*
X79945261Y-88487738D01*
X79850023Y-88582976D01*
X79754785Y-88630595D01*
X79484952Y-78168880D02*
X78913523Y-78168880D01*
X79199238Y-78168880D02*
X79199238Y-77168880D01*
X79104000Y-77311738D01*
X79008761Y-77406976D01*
X78913523Y-77454595D01*
X79913523Y-78168880D02*
X79913523Y-77168880D01*
X80008761Y-77787928D02*
X80294476Y-78168880D01*
X80294476Y-77502214D02*
X79913523Y-77883166D01*
%TO.C,D2*%
X90295904Y-75311380D02*
X90295904Y-74311380D01*
X90534000Y-74311380D01*
X90676857Y-74359000D01*
X90772095Y-74454238D01*
X90819714Y-74549476D01*
X90867333Y-74739952D01*
X90867333Y-74882809D01*
X90819714Y-75073285D01*
X90772095Y-75168523D01*
X90676857Y-75263761D01*
X90534000Y-75311380D01*
X90295904Y-75311380D01*
X91248285Y-74406619D02*
X91295904Y-74359000D01*
X91391142Y-74311380D01*
X91629238Y-74311380D01*
X91724476Y-74359000D01*
X91772095Y-74406619D01*
X91819714Y-74501857D01*
X91819714Y-74597095D01*
X91772095Y-74739952D01*
X91200666Y-75311380D01*
X91819714Y-75311380D01*
X91486380Y-84177357D02*
X91486380Y-84748785D01*
X91486380Y-84463071D02*
X90486380Y-84463071D01*
X90629238Y-84558309D01*
X90724476Y-84653547D01*
X90772095Y-84748785D01*
X91486380Y-83748785D02*
X90486380Y-83748785D01*
X91486380Y-83177357D01*
X90486380Y-83177357D01*
X90486380Y-82224976D02*
X90486380Y-82701166D01*
X90962571Y-82748785D01*
X90914952Y-82701166D01*
X90867333Y-82605928D01*
X90867333Y-82367833D01*
X90914952Y-82272595D01*
X90962571Y-82224976D01*
X91057809Y-82177357D01*
X91295904Y-82177357D01*
X91391142Y-82224976D01*
X91438761Y-82272595D01*
X91486380Y-82367833D01*
X91486380Y-82605928D01*
X91438761Y-82701166D01*
X91391142Y-82748785D01*
X90914952Y-81605928D02*
X90867333Y-81701166D01*
X90819714Y-81748785D01*
X90724476Y-81796404D01*
X90676857Y-81796404D01*
X90581619Y-81748785D01*
X90534000Y-81701166D01*
X90486380Y-81605928D01*
X90486380Y-81415452D01*
X90534000Y-81320214D01*
X90581619Y-81272595D01*
X90676857Y-81224976D01*
X90724476Y-81224976D01*
X90819714Y-81272595D01*
X90867333Y-81320214D01*
X90914952Y-81415452D01*
X90914952Y-81605928D01*
X90962571Y-81701166D01*
X91010190Y-81748785D01*
X91105428Y-81796404D01*
X91295904Y-81796404D01*
X91391142Y-81748785D01*
X91438761Y-81701166D01*
X91486380Y-81605928D01*
X91486380Y-81415452D01*
X91438761Y-81320214D01*
X91391142Y-81272595D01*
X91295904Y-81224976D01*
X91105428Y-81224976D01*
X91010190Y-81272595D01*
X90962571Y-81320214D01*
X90914952Y-81415452D01*
X91486380Y-80272595D02*
X91486380Y-80844023D01*
X91486380Y-80558309D02*
X90486380Y-80558309D01*
X90629238Y-80653547D01*
X90724476Y-80748785D01*
X90772095Y-80844023D01*
X91486380Y-79796404D02*
X91486380Y-79605928D01*
X91438761Y-79510690D01*
X91391142Y-79463071D01*
X91248285Y-79367833D01*
X91057809Y-79320214D01*
X90676857Y-79320214D01*
X90581619Y-79367833D01*
X90534000Y-79415452D01*
X90486380Y-79510690D01*
X90486380Y-79701166D01*
X90534000Y-79796404D01*
X90581619Y-79844023D01*
X90676857Y-79891642D01*
X90914952Y-79891642D01*
X91010190Y-79844023D01*
X91057809Y-79796404D01*
X91105428Y-79701166D01*
X91105428Y-79510690D01*
X91057809Y-79415452D01*
X91010190Y-79367833D01*
X90914952Y-79320214D01*
X88740095Y-87439880D02*
X88740095Y-86439880D01*
X89311523Y-87439880D02*
X88882952Y-86868452D01*
X89311523Y-86439880D02*
X88740095Y-87011309D01*
%TO.C,D1*%
X93978904Y-75311380D02*
X93978904Y-74311380D01*
X94217000Y-74311380D01*
X94359857Y-74359000D01*
X94455095Y-74454238D01*
X94502714Y-74549476D01*
X94550333Y-74739952D01*
X94550333Y-74882809D01*
X94502714Y-75073285D01*
X94455095Y-75168523D01*
X94359857Y-75263761D01*
X94217000Y-75311380D01*
X93978904Y-75311380D01*
X95502714Y-75311380D02*
X94931285Y-75311380D01*
X95217000Y-75311380D02*
X95217000Y-74311380D01*
X95121761Y-74454238D01*
X95026523Y-74549476D01*
X94931285Y-74597095D01*
X95232880Y-84177357D02*
X95232880Y-84748785D01*
X95232880Y-84463071D02*
X94232880Y-84463071D01*
X94375738Y-84558309D01*
X94470976Y-84653547D01*
X94518595Y-84748785D01*
X95232880Y-83748785D02*
X94232880Y-83748785D01*
X95232880Y-83177357D01*
X94232880Y-83177357D01*
X94232880Y-82224976D02*
X94232880Y-82701166D01*
X94709071Y-82748785D01*
X94661452Y-82701166D01*
X94613833Y-82605928D01*
X94613833Y-82367833D01*
X94661452Y-82272595D01*
X94709071Y-82224976D01*
X94804309Y-82177357D01*
X95042404Y-82177357D01*
X95137642Y-82224976D01*
X95185261Y-82272595D01*
X95232880Y-82367833D01*
X95232880Y-82605928D01*
X95185261Y-82701166D01*
X95137642Y-82748785D01*
X94661452Y-81605928D02*
X94613833Y-81701166D01*
X94566214Y-81748785D01*
X94470976Y-81796404D01*
X94423357Y-81796404D01*
X94328119Y-81748785D01*
X94280500Y-81701166D01*
X94232880Y-81605928D01*
X94232880Y-81415452D01*
X94280500Y-81320214D01*
X94328119Y-81272595D01*
X94423357Y-81224976D01*
X94470976Y-81224976D01*
X94566214Y-81272595D01*
X94613833Y-81320214D01*
X94661452Y-81415452D01*
X94661452Y-81605928D01*
X94709071Y-81701166D01*
X94756690Y-81748785D01*
X94851928Y-81796404D01*
X95042404Y-81796404D01*
X95137642Y-81748785D01*
X95185261Y-81701166D01*
X95232880Y-81605928D01*
X95232880Y-81415452D01*
X95185261Y-81320214D01*
X95137642Y-81272595D01*
X95042404Y-81224976D01*
X94851928Y-81224976D01*
X94756690Y-81272595D01*
X94709071Y-81320214D01*
X94661452Y-81415452D01*
X95232880Y-80272595D02*
X95232880Y-80844023D01*
X95232880Y-80558309D02*
X94232880Y-80558309D01*
X94375738Y-80653547D01*
X94470976Y-80748785D01*
X94518595Y-80844023D01*
X95232880Y-79796404D02*
X95232880Y-79605928D01*
X95185261Y-79510690D01*
X95137642Y-79463071D01*
X94994785Y-79367833D01*
X94804309Y-79320214D01*
X94423357Y-79320214D01*
X94328119Y-79367833D01*
X94280500Y-79415452D01*
X94232880Y-79510690D01*
X94232880Y-79701166D01*
X94280500Y-79796404D01*
X94328119Y-79844023D01*
X94423357Y-79891642D01*
X94661452Y-79891642D01*
X94756690Y-79844023D01*
X94804309Y-79796404D01*
X94851928Y-79701166D01*
X94851928Y-79510690D01*
X94804309Y-79415452D01*
X94756690Y-79367833D01*
X94661452Y-79320214D01*
X96550595Y-87566880D02*
X96550595Y-86566880D01*
X97122023Y-87566880D02*
X96693452Y-86995452D01*
X97122023Y-86566880D02*
X96550595Y-87138309D01*
%TO.C,J2*%
X94764666Y-69104380D02*
X94764666Y-69818666D01*
X94717047Y-69961523D01*
X94621809Y-70056761D01*
X94478952Y-70104380D01*
X94383714Y-70104380D01*
X95193238Y-69199619D02*
X95240857Y-69152000D01*
X95336095Y-69104380D01*
X95574190Y-69104380D01*
X95669428Y-69152000D01*
X95717047Y-69199619D01*
X95764666Y-69294857D01*
X95764666Y-69390095D01*
X95717047Y-69532952D01*
X95145619Y-70104380D01*
X95764666Y-70104380D01*
X88692380Y-75954000D02*
X87692380Y-75954000D01*
X87692380Y-75715904D01*
X87740000Y-75573047D01*
X87835238Y-75477809D01*
X87930476Y-75430190D01*
X88120952Y-75382571D01*
X88263809Y-75382571D01*
X88454285Y-75430190D01*
X88549523Y-75477809D01*
X88644761Y-75573047D01*
X88692380Y-75715904D01*
X88692380Y-75954000D01*
X88644761Y-75001619D02*
X88692380Y-74858761D01*
X88692380Y-74620666D01*
X88644761Y-74525428D01*
X88597142Y-74477809D01*
X88501904Y-74430190D01*
X88406666Y-74430190D01*
X88311428Y-74477809D01*
X88263809Y-74525428D01*
X88216190Y-74620666D01*
X88168571Y-74811142D01*
X88120952Y-74906380D01*
X88073333Y-74954000D01*
X87978095Y-75001619D01*
X87882857Y-75001619D01*
X87787619Y-74954000D01*
X87740000Y-74906380D01*
X87692380Y-74811142D01*
X87692380Y-74573047D01*
X87740000Y-74430190D01*
X88692380Y-74001619D02*
X87692380Y-74001619D01*
X88406666Y-73668285D01*
X87692380Y-73334952D01*
X88692380Y-73334952D01*
X88692380Y-72287333D02*
X88216190Y-72620666D01*
X88692380Y-72858761D02*
X87692380Y-72858761D01*
X87692380Y-72477809D01*
X87740000Y-72382571D01*
X87787619Y-72334952D01*
X87882857Y-72287333D01*
X88025714Y-72287333D01*
X88120952Y-72334952D01*
X88168571Y-72382571D01*
X88216190Y-72477809D01*
X88216190Y-72858761D01*
X87787619Y-71906380D02*
X87740000Y-71858761D01*
X87692380Y-71763523D01*
X87692380Y-71525428D01*
X87740000Y-71430190D01*
X87787619Y-71382571D01*
X87882857Y-71334952D01*
X87978095Y-71334952D01*
X88120952Y-71382571D01*
X88692380Y-71954000D01*
X88692380Y-71334952D01*
X88597142Y-70906380D02*
X88644761Y-70858761D01*
X88692380Y-70906380D01*
X88644761Y-70954000D01*
X88597142Y-70906380D01*
X88692380Y-70906380D01*
X87787619Y-70477809D02*
X87740000Y-70430190D01*
X87692380Y-70334952D01*
X87692380Y-70096857D01*
X87740000Y-70001619D01*
X87787619Y-69954000D01*
X87882857Y-69906380D01*
X87978095Y-69906380D01*
X88120952Y-69954000D01*
X88692380Y-70525428D01*
X88692380Y-69906380D01*
%TO.C,U1*%
X97828595Y-93361380D02*
X97828595Y-94170904D01*
X97876214Y-94266142D01*
X97923833Y-94313761D01*
X98019071Y-94361380D01*
X98209547Y-94361380D01*
X98304785Y-94313761D01*
X98352404Y-94266142D01*
X98400023Y-94170904D01*
X98400023Y-93361380D01*
X99400023Y-94361380D02*
X98828595Y-94361380D01*
X99114309Y-94361380D02*
X99114309Y-93361380D01*
X99019071Y-93504238D01*
X98923833Y-93599476D01*
X98828595Y-93647095D01*
X100836880Y-84034047D02*
X101836880Y-83795952D01*
X101122595Y-83605476D01*
X101836880Y-83415000D01*
X100836880Y-83176904D01*
X101789261Y-82415000D02*
X101836880Y-82510238D01*
X101836880Y-82700714D01*
X101789261Y-82795952D01*
X101694023Y-82843571D01*
X101313071Y-82843571D01*
X101217833Y-82795952D01*
X101170214Y-82700714D01*
X101170214Y-82510238D01*
X101217833Y-82415000D01*
X101313071Y-82367380D01*
X101408309Y-82367380D01*
X101503547Y-82843571D01*
X101836880Y-81938809D02*
X100836880Y-81938809D01*
X101551166Y-81605476D01*
X100836880Y-81272142D01*
X101836880Y-81272142D01*
X101836880Y-80653095D02*
X101789261Y-80748333D01*
X101741642Y-80795952D01*
X101646404Y-80843571D01*
X101360690Y-80843571D01*
X101265452Y-80795952D01*
X101217833Y-80748333D01*
X101170214Y-80653095D01*
X101170214Y-80510238D01*
X101217833Y-80415000D01*
X101265452Y-80367380D01*
X101360690Y-80319761D01*
X101646404Y-80319761D01*
X101741642Y-80367380D01*
X101789261Y-80415000D01*
X101836880Y-80510238D01*
X101836880Y-80653095D01*
X101789261Y-79938809D02*
X101836880Y-79843571D01*
X101836880Y-79653095D01*
X101789261Y-79557857D01*
X101694023Y-79510238D01*
X101646404Y-79510238D01*
X101551166Y-79557857D01*
X101503547Y-79653095D01*
X101503547Y-79795952D01*
X101455928Y-79891190D01*
X101360690Y-79938809D01*
X101313071Y-79938809D01*
X101217833Y-79891190D01*
X101170214Y-79795952D01*
X101170214Y-79653095D01*
X101217833Y-79557857D01*
X101932119Y-79319761D02*
X101932119Y-78557857D01*
X101836880Y-78319761D02*
X100836880Y-78319761D01*
X100836880Y-78081666D01*
X100884500Y-77938809D01*
X100979738Y-77843571D01*
X101074976Y-77795952D01*
X101265452Y-77748333D01*
X101408309Y-77748333D01*
X101598785Y-77795952D01*
X101694023Y-77843571D01*
X101789261Y-77938809D01*
X101836880Y-78081666D01*
X101836880Y-78319761D01*
X101836880Y-76795952D02*
X101836880Y-77367380D01*
X101836880Y-77081666D02*
X100836880Y-77081666D01*
X100979738Y-77176904D01*
X101074976Y-77272142D01*
X101122595Y-77367380D01*
X101932119Y-76605476D02*
X101932119Y-75843571D01*
X101836880Y-75605476D02*
X101170214Y-75605476D01*
X101265452Y-75605476D02*
X101217833Y-75557857D01*
X101170214Y-75462619D01*
X101170214Y-75319761D01*
X101217833Y-75224523D01*
X101313071Y-75176904D01*
X101836880Y-75176904D01*
X101313071Y-75176904D02*
X101217833Y-75129285D01*
X101170214Y-75034047D01*
X101170214Y-74891190D01*
X101217833Y-74795952D01*
X101313071Y-74748333D01*
X101836880Y-74748333D01*
X101836880Y-74272142D02*
X101170214Y-74272142D01*
X100836880Y-74272142D02*
X100884500Y-74319761D01*
X100932119Y-74272142D01*
X100884500Y-74224523D01*
X100836880Y-74272142D01*
X100932119Y-74272142D01*
X101170214Y-73795952D02*
X101836880Y-73795952D01*
X101265452Y-73795952D02*
X101217833Y-73748333D01*
X101170214Y-73653095D01*
X101170214Y-73510238D01*
X101217833Y-73415000D01*
X101313071Y-73367380D01*
X101836880Y-73367380D01*
X101836880Y-72891190D02*
X101170214Y-72891190D01*
X100836880Y-72891190D02*
X100884500Y-72938809D01*
X100932119Y-72891190D01*
X100884500Y-72843571D01*
X100836880Y-72891190D01*
X100932119Y-72891190D01*
%TO.C,R3*%
X86993833Y-89344880D02*
X86660500Y-88868690D01*
X86422404Y-89344880D02*
X86422404Y-88344880D01*
X86803357Y-88344880D01*
X86898595Y-88392500D01*
X86946214Y-88440119D01*
X86993833Y-88535357D01*
X86993833Y-88678214D01*
X86946214Y-88773452D01*
X86898595Y-88821071D01*
X86803357Y-88868690D01*
X86422404Y-88868690D01*
X87327166Y-88344880D02*
X87946214Y-88344880D01*
X87612880Y-88725833D01*
X87755738Y-88725833D01*
X87850976Y-88773452D01*
X87898595Y-88821071D01*
X87946214Y-88916309D01*
X87946214Y-89154404D01*
X87898595Y-89249642D01*
X87850976Y-89297261D01*
X87755738Y-89344880D01*
X87470023Y-89344880D01*
X87374785Y-89297261D01*
X87327166Y-89249642D01*
X85946214Y-77168880D02*
X86565261Y-77168880D01*
X86231928Y-77549833D01*
X86374785Y-77549833D01*
X86470023Y-77597452D01*
X86517642Y-77645071D01*
X86565261Y-77740309D01*
X86565261Y-77978404D01*
X86517642Y-78073642D01*
X86470023Y-78121261D01*
X86374785Y-78168880D01*
X86089071Y-78168880D01*
X85993833Y-78121261D01*
X85946214Y-78073642D01*
X86993833Y-78168880D02*
X86993833Y-77168880D01*
X87089071Y-77787928D02*
X87374785Y-78168880D01*
X87374785Y-77502214D02*
X86993833Y-77883166D01*
X87708119Y-77168880D02*
X88327166Y-77168880D01*
X87993833Y-77549833D01*
X88136690Y-77549833D01*
X88231928Y-77597452D01*
X88279547Y-77645071D01*
X88327166Y-77740309D01*
X88327166Y-77978404D01*
X88279547Y-78073642D01*
X88231928Y-78121261D01*
X88136690Y-78168880D01*
X87850976Y-78168880D01*
X87755738Y-78121261D01*
X87708119Y-78073642D01*
%TO.C,R2*%
X83183833Y-89344880D02*
X82850500Y-88868690D01*
X82612404Y-89344880D02*
X82612404Y-88344880D01*
X82993357Y-88344880D01*
X83088595Y-88392500D01*
X83136214Y-88440119D01*
X83183833Y-88535357D01*
X83183833Y-88678214D01*
X83136214Y-88773452D01*
X83088595Y-88821071D01*
X82993357Y-88868690D01*
X82612404Y-88868690D01*
X83564785Y-88440119D02*
X83612404Y-88392500D01*
X83707642Y-88344880D01*
X83945738Y-88344880D01*
X84040976Y-88392500D01*
X84088595Y-88440119D01*
X84136214Y-88535357D01*
X84136214Y-88630595D01*
X84088595Y-88773452D01*
X83517166Y-89344880D01*
X84136214Y-89344880D01*
X83294952Y-78168880D02*
X82723523Y-78168880D01*
X83009238Y-78168880D02*
X83009238Y-77168880D01*
X82914000Y-77311738D01*
X82818761Y-77406976D01*
X82723523Y-77454595D01*
X83723523Y-78168880D02*
X83723523Y-77168880D01*
X83818761Y-77787928D02*
X84104476Y-78168880D01*
X84104476Y-77502214D02*
X83723523Y-77883166D01*
%TO.C,Q1*%
X78556261Y-71279119D02*
X78461023Y-71231500D01*
X78365785Y-71136261D01*
X78222928Y-70993404D01*
X78127690Y-70945785D01*
X78032452Y-70945785D01*
X78080071Y-71183880D02*
X77984833Y-71136261D01*
X77889595Y-71041023D01*
X77841976Y-70850547D01*
X77841976Y-70517214D01*
X77889595Y-70326738D01*
X77984833Y-70231500D01*
X78080071Y-70183880D01*
X78270547Y-70183880D01*
X78365785Y-70231500D01*
X78461023Y-70326738D01*
X78508642Y-70517214D01*
X78508642Y-70850547D01*
X78461023Y-71041023D01*
X78365785Y-71136261D01*
X78270547Y-71183880D01*
X78080071Y-71183880D01*
X79461023Y-71183880D02*
X78889595Y-71183880D01*
X79175309Y-71183880D02*
X79175309Y-70183880D01*
X79080071Y-70326738D01*
X78984833Y-70421976D01*
X78889595Y-70469595D01*
X80604357Y-70660071D02*
X80747214Y-70707690D01*
X80794833Y-70755309D01*
X80842452Y-70850547D01*
X80842452Y-70993404D01*
X80794833Y-71088642D01*
X80747214Y-71136261D01*
X80651976Y-71183880D01*
X80271023Y-71183880D01*
X80271023Y-70183880D01*
X80604357Y-70183880D01*
X80699595Y-70231500D01*
X80747214Y-70279119D01*
X80794833Y-70374357D01*
X80794833Y-70469595D01*
X80747214Y-70564833D01*
X80699595Y-70612452D01*
X80604357Y-70660071D01*
X80271023Y-70660071D01*
X81842452Y-71088642D02*
X81794833Y-71136261D01*
X81651976Y-71183880D01*
X81556738Y-71183880D01*
X81413880Y-71136261D01*
X81318642Y-71041023D01*
X81271023Y-70945785D01*
X81223404Y-70755309D01*
X81223404Y-70612452D01*
X81271023Y-70421976D01*
X81318642Y-70326738D01*
X81413880Y-70231500D01*
X81556738Y-70183880D01*
X81651976Y-70183880D01*
X81794833Y-70231500D01*
X81842452Y-70279119D01*
X82747214Y-70183880D02*
X82271023Y-70183880D01*
X82223404Y-70660071D01*
X82271023Y-70612452D01*
X82366261Y-70564833D01*
X82604357Y-70564833D01*
X82699595Y-70612452D01*
X82747214Y-70660071D01*
X82794833Y-70755309D01*
X82794833Y-70993404D01*
X82747214Y-71088642D01*
X82699595Y-71136261D01*
X82604357Y-71183880D01*
X82366261Y-71183880D01*
X82271023Y-71136261D01*
X82223404Y-71088642D01*
X83651976Y-70517214D02*
X83651976Y-71183880D01*
X83413880Y-70136261D02*
X83175785Y-70850547D01*
X83794833Y-70850547D01*
X84080547Y-70183880D02*
X84747214Y-70183880D01*
X84318642Y-71183880D01*
%TO.C,J1*%
X96288666Y-95901380D02*
X96288666Y-96615666D01*
X96241047Y-96758523D01*
X96145809Y-96853761D01*
X96002952Y-96901380D01*
X95907714Y-96901380D01*
X97288666Y-96901380D02*
X96717238Y-96901380D01*
X97002952Y-96901380D02*
X97002952Y-95901380D01*
X96907714Y-96044238D01*
X96812476Y-96139476D01*
X96717238Y-96187095D01*
X73111452Y-97599880D02*
X73111452Y-96599880D01*
X73492404Y-96599880D01*
X73587642Y-96647500D01*
X73635261Y-96695119D01*
X73682880Y-96790357D01*
X73682880Y-96933214D01*
X73635261Y-97028452D01*
X73587642Y-97076071D01*
X73492404Y-97123690D01*
X73111452Y-97123690D01*
X74635261Y-97599880D02*
X74063833Y-97599880D01*
X74349547Y-97599880D02*
X74349547Y-96599880D01*
X74254309Y-96742738D01*
X74159071Y-96837976D01*
X74063833Y-96885595D01*
X75825738Y-96933214D02*
X75825738Y-97933214D01*
X75825738Y-96980833D02*
X75920976Y-96933214D01*
X76111452Y-96933214D01*
X76206690Y-96980833D01*
X76254309Y-97028452D01*
X76301928Y-97123690D01*
X76301928Y-97409404D01*
X76254309Y-97504642D01*
X76206690Y-97552261D01*
X76111452Y-97599880D01*
X75920976Y-97599880D01*
X75825738Y-97552261D01*
X76873357Y-97599880D02*
X76778119Y-97552261D01*
X76730500Y-97504642D01*
X76682880Y-97409404D01*
X76682880Y-97123690D01*
X76730500Y-97028452D01*
X76778119Y-96980833D01*
X76873357Y-96933214D01*
X77016214Y-96933214D01*
X77111452Y-96980833D01*
X77159071Y-97028452D01*
X77206690Y-97123690D01*
X77206690Y-97409404D01*
X77159071Y-97504642D01*
X77111452Y-97552261D01*
X77016214Y-97599880D01*
X76873357Y-97599880D01*
X77635261Y-97599880D02*
X77635261Y-96933214D01*
X77635261Y-97123690D02*
X77682880Y-97028452D01*
X77730500Y-96980833D01*
X77825738Y-96933214D01*
X77920976Y-96933214D01*
X78111452Y-96933214D02*
X78492404Y-96933214D01*
X78254309Y-96599880D02*
X78254309Y-97457023D01*
X78301928Y-97552261D01*
X78397166Y-97599880D01*
X78492404Y-97599880D01*
%TD*%
M02*
