%TF.GenerationSoftware,KiCad,Pcbnew,5.1.9-73d0e3b20d~88~ubuntu20.04.1*%
%TF.CreationDate,2021-02-01T09:35:04+01:00*%
%TF.ProjectId,WemosSlimmemeter,57656d6f-7353-46c6-996d-6d656d657465,V1.0.0.0*%
%TF.SameCoordinates,Original*%
%TF.FileFunction,Copper,L1,Top*%
%TF.FilePolarity,Positive*%
%FSLAX46Y46*%
G04 Gerber Fmt 4.6, Leading zero omitted, Abs format (unit mm)*
G04 Created by KiCad (PCBNEW 5.1.9-73d0e3b20d~88~ubuntu20.04.1) date 2021-02-01 09:35:04*
%MOMM*%
%LPD*%
G01*
G04 APERTURE LIST*
%TA.AperFunction,ComponentPad*%
%ADD10C,3.500000*%
%TD*%
%TA.AperFunction,ComponentPad*%
%ADD11R,1.300000X1.300000*%
%TD*%
%TA.AperFunction,ComponentPad*%
%ADD12C,1.300000*%
%TD*%
%TA.AperFunction,ComponentPad*%
%ADD13O,1.600000X1.600000*%
%TD*%
%TA.AperFunction,ComponentPad*%
%ADD14C,1.600000*%
%TD*%
%TA.AperFunction,ComponentPad*%
%ADD15O,2.200000X2.200000*%
%TD*%
%TA.AperFunction,ComponentPad*%
%ADD16R,2.200000X2.200000*%
%TD*%
%TA.AperFunction,ComponentPad*%
%ADD17O,1.700000X1.700000*%
%TD*%
%TA.AperFunction,ComponentPad*%
%ADD18R,1.700000X1.700000*%
%TD*%
%TA.AperFunction,ComponentPad*%
%ADD19O,2.000000X1.600000*%
%TD*%
%TA.AperFunction,ComponentPad*%
%ADD20R,2.000000X2.000000*%
%TD*%
%TA.AperFunction,ComponentPad*%
%ADD21R,1.050000X1.500000*%
%TD*%
%TA.AperFunction,ComponentPad*%
%ADD22O,1.050000X1.500000*%
%TD*%
%TA.AperFunction,Conductor*%
%ADD23C,0.500000*%
%TD*%
%TA.AperFunction,Conductor*%
%ADD24C,1.000000*%
%TD*%
G04 APERTURE END LIST*
D10*
%TO.P,REF\u002A\u002A,1*%
%TO.N,N/C*%
X74460500Y-101592500D03*
%TD*%
%TO.P,REF\u002A\u002A,1*%
%TO.N,N/C*%
X99860500Y-101592500D03*
%TD*%
%TO.P,REF\u002A\u002A,1*%
%TO.N,N/C*%
X99860500Y-51427500D03*
%TD*%
%TO.P,REF\u002A\u002A,1*%
%TO.N,N/C*%
X74460500Y-51427500D03*
%TD*%
D11*
%TO.P,J3,1*%
%TO.N,Net-(D1-Pad2)*%
X83350500Y-54602500D03*
D12*
%TO.P,J3,2*%
%TO.N,Net-(J3-Pad2)*%
X85850500Y-54602500D03*
%TO.P,J3,3*%
%TO.N,Net-(J3-Pad3)*%
X88430500Y-54602500D03*
%TO.P,J3,4*%
%TO.N,GND*%
X90970500Y-54602500D03*
%TD*%
D13*
%TO.P,R1,2*%
%TO.N,Net-(Q1-Pad1)*%
X79540500Y-79367500D03*
D14*
%TO.P,R1,1*%
%TO.N,Net-(R1-Pad1)*%
X79540500Y-86987500D03*
%TD*%
D15*
%TO.P,D2,2*%
%TO.N,Net-(D2-Pad2)*%
X90970500Y-76827500D03*
D16*
%TO.P,D2,1*%
%TO.N,+5V*%
X90970500Y-86987500D03*
%TD*%
D15*
%TO.P,D1,2*%
%TO.N,Net-(D1-Pad2)*%
X94780500Y-76827500D03*
D16*
%TO.P,D1,1*%
%TO.N,+5V*%
X94780500Y-86987500D03*
%TD*%
D17*
%TO.P,J2,2*%
%TO.N,GND*%
X91605500Y-72382500D03*
D18*
%TO.P,J2,1*%
%TO.N,Net-(J2-Pad1)*%
X94145500Y-72382500D03*
%TD*%
D19*
%TO.P,U1,16*%
%TO.N,Net-(U1-Pad16)*%
X98590500Y-69207500D03*
%TO.P,U1,15*%
%TO.N,Net-(Q1-Pad1)*%
X98590500Y-71747500D03*
%TO.P,U1,14*%
%TO.N,Net-(J2-Pad1)*%
X98590500Y-74287500D03*
%TO.P,U1,13*%
%TO.N,Net-(U1-Pad13)*%
X98590500Y-76827500D03*
%TO.P,U1,12*%
%TO.N,Net-(U1-Pad12)*%
X98590500Y-79367500D03*
%TO.P,U1,11*%
%TO.N,Net-(U1-Pad11)*%
X98590500Y-81907500D03*
%TO.P,U1,10*%
%TO.N,GND*%
X98590500Y-84447500D03*
%TO.P,U1,9*%
%TO.N,+5V*%
X98590500Y-86987500D03*
%TO.P,U1,8*%
%TO.N,Net-(R1-Pad1)*%
X75730500Y-86987500D03*
%TO.P,U1,7*%
%TO.N,Net-(U1-Pad7)*%
X75730500Y-84447500D03*
%TO.P,U1,6*%
%TO.N,Net-(U1-Pad6)*%
X75730500Y-81907500D03*
%TO.P,U1,5*%
%TO.N,Net-(U1-Pad5)*%
X75730500Y-79367500D03*
%TO.P,U1,4*%
%TO.N,Net-(U1-Pad4)*%
X75730500Y-76827500D03*
%TO.P,U1,3*%
%TO.N,Net-(U1-Pad3)*%
X75730500Y-74287500D03*
D20*
%TO.P,U1,1*%
%TO.N,Net-(U1-Pad1)*%
X75730500Y-69207500D03*
D19*
%TO.P,U1,2*%
%TO.N,Net-(U1-Pad2)*%
X75730500Y-71747500D03*
%TD*%
D13*
%TO.P,R3,2*%
%TO.N,Net-(J1-Pad5)*%
X87160500Y-86987500D03*
D14*
%TO.P,R3,1*%
%TO.N,+5V*%
X87160500Y-79367500D03*
%TD*%
D13*
%TO.P,R2,2*%
%TO.N,Net-(Q1-Pad2)*%
X83350500Y-79367500D03*
D14*
%TO.P,R2,1*%
%TO.N,Net-(J1-Pad5)*%
X83350500Y-86987500D03*
%TD*%
D21*
%TO.P,Q1,1*%
%TO.N,Net-(Q1-Pad1)*%
X79540500Y-74287500D03*
D22*
%TO.P,Q1,3*%
%TO.N,GND*%
X82080500Y-74287500D03*
%TO.P,Q1,2*%
%TO.N,Net-(Q1-Pad2)*%
X80810500Y-74287500D03*
%TD*%
D17*
%TO.P,J1,6*%
%TO.N,GND*%
X81153000Y-93599000D03*
%TO.P,J1,5*%
%TO.N,Net-(J1-Pad5)*%
X83693000Y-93599000D03*
%TO.P,J1,4*%
%TO.N,Net-(J1-Pad4)*%
X86233000Y-93599000D03*
%TO.P,J1,3*%
%TO.N,GND*%
X88773000Y-93599000D03*
%TO.P,J1,2*%
%TO.N,+5V*%
X91313000Y-93599000D03*
D18*
%TO.P,J1,1*%
%TO.N,Net-(D2-Pad2)*%
X93853000Y-93599000D03*
%TD*%
D23*
%TO.N,GND*%
X81153000Y-93599000D02*
X81153000Y-92995000D01*
X98590500Y-84447500D02*
X97955500Y-84447500D01*
D24*
X88773000Y-91902000D02*
X88773000Y-93599000D01*
X88303500Y-91432500D02*
X88773000Y-91902000D01*
X81445500Y-91432500D02*
X88303500Y-91432500D01*
X81153000Y-91725000D02*
X81445500Y-91432500D01*
X81153000Y-92995000D02*
X81153000Y-91725000D01*
X88773000Y-94950000D02*
X88773000Y-93599000D01*
X89700500Y-95877500D02*
X88773000Y-94950000D01*
X95923500Y-95877500D02*
X89700500Y-95877500D01*
X96812500Y-94988500D02*
X95923500Y-95877500D01*
X96812500Y-84955500D02*
X96812500Y-94988500D01*
X97320500Y-84447500D02*
X96812500Y-84955500D01*
X97955500Y-84447500D02*
X97320500Y-84447500D01*
%TO.N,+5V*%
X90970500Y-86987500D02*
X94780500Y-86987500D01*
%TO.N,Net-(Q1-Pad1)*%
X95796500Y-70223500D02*
X97320500Y-71747500D01*
X82354500Y-70223500D02*
X95796500Y-70223500D01*
X79540500Y-73037500D02*
X82354500Y-70223500D01*
X97320500Y-71747500D02*
X98590500Y-71747500D01*
X79540500Y-74287500D02*
X79540500Y-73037500D01*
%TO.N,Net-(D1-Pad2)*%
X90208500Y-81399500D02*
X94780500Y-76827500D01*
X78016500Y-81399500D02*
X90208500Y-81399500D01*
X77762500Y-81145500D02*
X78016500Y-81399500D01*
X77762500Y-61333500D02*
X77762500Y-81145500D01*
X83350500Y-55745500D02*
X77762500Y-61333500D01*
X83350500Y-54602500D02*
X83350500Y-55745500D01*
%TD*%
M02*
