M48
; DRILL file {KiCad 5.1.9-73d0e3b20d~88~ubuntu20.04.1} date Mon Feb  1 09:34:58 2021
; FORMAT={-:-/ absolute / metric / decimal}
; #@! TF.CreationDate,2021-02-01T09:34:58+01:00
; #@! TF.GenerationSoftware,Kicad,Pcbnew,5.1.9-73d0e3b20d~88~ubuntu20.04.1
; #@! TF.FileFunction,Plated,1,2,PTH
FMAT,2
METRIC
T1C0.750
T2C0.800
T3C0.900
T4C1.000
T5C1.100
T6C2.200
%
G90
G05
T1
X79.54Y-74.287
X80.81Y-74.287
X82.081Y-74.287
T2
X79.54Y-79.367
X79.54Y-86.987
X83.35Y-79.367
X83.35Y-86.987
X87.16Y-79.367
X87.16Y-86.987
T3
X83.35Y-54.602
X85.85Y-54.602
X88.43Y-54.602
X90.971Y-54.602
T4
X75.73Y-69.207
X75.73Y-71.748
X75.73Y-74.287
X75.73Y-76.828
X75.73Y-79.367
X75.73Y-81.907
X75.73Y-84.447
X75.73Y-86.987
X81.153Y-93.599
X83.693Y-93.599
X86.233Y-93.599
X88.773Y-93.599
X91.313Y-93.599
X91.605Y-72.382
X93.853Y-93.599
X94.145Y-72.382
X98.59Y-69.207
X98.59Y-71.748
X98.59Y-74.287
X98.59Y-76.828
X98.59Y-79.367
X98.59Y-81.907
X98.59Y-84.447
X98.59Y-86.987
T5
X90.971Y-76.828
X90.971Y-86.987
X94.78Y-76.828
X94.78Y-86.987
T6
X74.46Y-51.427
X74.46Y-101.593
X99.861Y-51.427
X99.861Y-101.593
T0
M30
