%TF.GenerationSoftware,KiCad,Pcbnew,5.1.9-73d0e3b20d~88~ubuntu20.04.1*%
%TF.CreationDate,2021-02-01T09:35:04+01:00*%
%TF.ProjectId,WemosSlimmemeter,57656d6f-7353-46c6-996d-6d656d657465,V1.0.0.0*%
%TF.SameCoordinates,Original*%
%TF.FileFunction,Copper,L2,Bot*%
%TF.FilePolarity,Positive*%
%FSLAX46Y46*%
G04 Gerber Fmt 4.6, Leading zero omitted, Abs format (unit mm)*
G04 Created by KiCad (PCBNEW 5.1.9-73d0e3b20d~88~ubuntu20.04.1) date 2021-02-01 09:35:04*
%MOMM*%
%LPD*%
G01*
G04 APERTURE LIST*
%TA.AperFunction,ComponentPad*%
%ADD10C,3.500000*%
%TD*%
%TA.AperFunction,ComponentPad*%
%ADD11R,1.300000X1.300000*%
%TD*%
%TA.AperFunction,ComponentPad*%
%ADD12C,1.300000*%
%TD*%
%TA.AperFunction,ComponentPad*%
%ADD13O,1.600000X1.600000*%
%TD*%
%TA.AperFunction,ComponentPad*%
%ADD14C,1.600000*%
%TD*%
%TA.AperFunction,ComponentPad*%
%ADD15O,2.200000X2.200000*%
%TD*%
%TA.AperFunction,ComponentPad*%
%ADD16R,2.200000X2.200000*%
%TD*%
%TA.AperFunction,ComponentPad*%
%ADD17O,1.700000X1.700000*%
%TD*%
%TA.AperFunction,ComponentPad*%
%ADD18R,1.700000X1.700000*%
%TD*%
%TA.AperFunction,ComponentPad*%
%ADD19O,2.000000X1.600000*%
%TD*%
%TA.AperFunction,ComponentPad*%
%ADD20R,2.000000X2.000000*%
%TD*%
%TA.AperFunction,ComponentPad*%
%ADD21R,1.050000X1.500000*%
%TD*%
%TA.AperFunction,ComponentPad*%
%ADD22O,1.050000X1.500000*%
%TD*%
%TA.AperFunction,Conductor*%
%ADD23C,1.000000*%
%TD*%
%TA.AperFunction,Conductor*%
%ADD24C,0.500000*%
%TD*%
%TA.AperFunction,Conductor*%
%ADD25C,0.750000*%
%TD*%
%TA.AperFunction,Conductor*%
%ADD26C,0.254000*%
%TD*%
%TA.AperFunction,Conductor*%
%ADD27C,0.100000*%
%TD*%
G04 APERTURE END LIST*
D10*
%TO.P,REF\u002A\u002A,1*%
%TO.N,N/C*%
X74460500Y-101592500D03*
%TD*%
%TO.P,REF\u002A\u002A,1*%
%TO.N,N/C*%
X99860500Y-101592500D03*
%TD*%
%TO.P,REF\u002A\u002A,1*%
%TO.N,N/C*%
X99860500Y-51427500D03*
%TD*%
%TO.P,REF\u002A\u002A,1*%
%TO.N,N/C*%
X74460500Y-51427500D03*
%TD*%
D11*
%TO.P,J3,1*%
%TO.N,Net-(D1-Pad2)*%
X83350500Y-54602500D03*
D12*
%TO.P,J3,2*%
%TO.N,Net-(J3-Pad2)*%
X85850500Y-54602500D03*
%TO.P,J3,3*%
%TO.N,Net-(J3-Pad3)*%
X88430500Y-54602500D03*
%TO.P,J3,4*%
%TO.N,GND*%
X90970500Y-54602500D03*
%TD*%
D13*
%TO.P,R1,2*%
%TO.N,Net-(Q1-Pad1)*%
X79540500Y-79367500D03*
D14*
%TO.P,R1,1*%
%TO.N,Net-(R1-Pad1)*%
X79540500Y-86987500D03*
%TD*%
D15*
%TO.P,D2,2*%
%TO.N,Net-(D2-Pad2)*%
X90970500Y-76827500D03*
D16*
%TO.P,D2,1*%
%TO.N,+5V*%
X90970500Y-86987500D03*
%TD*%
D15*
%TO.P,D1,2*%
%TO.N,Net-(D1-Pad2)*%
X94780500Y-76827500D03*
D16*
%TO.P,D1,1*%
%TO.N,+5V*%
X94780500Y-86987500D03*
%TD*%
D17*
%TO.P,J2,2*%
%TO.N,GND*%
X91605500Y-72382500D03*
D18*
%TO.P,J2,1*%
%TO.N,Net-(J2-Pad1)*%
X94145500Y-72382500D03*
%TD*%
D19*
%TO.P,U1,16*%
%TO.N,Net-(U1-Pad16)*%
X98590500Y-69207500D03*
%TO.P,U1,15*%
%TO.N,Net-(Q1-Pad1)*%
X98590500Y-71747500D03*
%TO.P,U1,14*%
%TO.N,Net-(J2-Pad1)*%
X98590500Y-74287500D03*
%TO.P,U1,13*%
%TO.N,Net-(U1-Pad13)*%
X98590500Y-76827500D03*
%TO.P,U1,12*%
%TO.N,Net-(U1-Pad12)*%
X98590500Y-79367500D03*
%TO.P,U1,11*%
%TO.N,Net-(U1-Pad11)*%
X98590500Y-81907500D03*
%TO.P,U1,10*%
%TO.N,GND*%
X98590500Y-84447500D03*
%TO.P,U1,9*%
%TO.N,+5V*%
X98590500Y-86987500D03*
%TO.P,U1,8*%
%TO.N,Net-(R1-Pad1)*%
X75730500Y-86987500D03*
%TO.P,U1,7*%
%TO.N,Net-(U1-Pad7)*%
X75730500Y-84447500D03*
%TO.P,U1,6*%
%TO.N,Net-(U1-Pad6)*%
X75730500Y-81907500D03*
%TO.P,U1,5*%
%TO.N,Net-(U1-Pad5)*%
X75730500Y-79367500D03*
%TO.P,U1,4*%
%TO.N,Net-(U1-Pad4)*%
X75730500Y-76827500D03*
%TO.P,U1,3*%
%TO.N,Net-(U1-Pad3)*%
X75730500Y-74287500D03*
D20*
%TO.P,U1,1*%
%TO.N,Net-(U1-Pad1)*%
X75730500Y-69207500D03*
D19*
%TO.P,U1,2*%
%TO.N,Net-(U1-Pad2)*%
X75730500Y-71747500D03*
%TD*%
D13*
%TO.P,R3,2*%
%TO.N,Net-(J1-Pad5)*%
X87160500Y-86987500D03*
D14*
%TO.P,R3,1*%
%TO.N,+5V*%
X87160500Y-79367500D03*
%TD*%
D13*
%TO.P,R2,2*%
%TO.N,Net-(Q1-Pad2)*%
X83350500Y-79367500D03*
D14*
%TO.P,R2,1*%
%TO.N,Net-(J1-Pad5)*%
X83350500Y-86987500D03*
%TD*%
D21*
%TO.P,Q1,1*%
%TO.N,Net-(Q1-Pad1)*%
X79540500Y-74287500D03*
D22*
%TO.P,Q1,3*%
%TO.N,GND*%
X82080500Y-74287500D03*
%TO.P,Q1,2*%
%TO.N,Net-(Q1-Pad2)*%
X80810500Y-74287500D03*
%TD*%
D17*
%TO.P,J1,6*%
%TO.N,GND*%
X81153000Y-93599000D03*
%TO.P,J1,5*%
%TO.N,Net-(J1-Pad5)*%
X83693000Y-93599000D03*
%TO.P,J1,4*%
%TO.N,Net-(J1-Pad4)*%
X86233000Y-93599000D03*
%TO.P,J1,3*%
%TO.N,GND*%
X88773000Y-93599000D03*
%TO.P,J1,2*%
%TO.N,+5V*%
X91313000Y-93599000D03*
D18*
%TO.P,J1,1*%
%TO.N,Net-(D2-Pad2)*%
X93853000Y-93599000D03*
%TD*%
D23*
%TO.N,GND*%
X90970500Y-71747500D02*
X91605500Y-72382500D01*
X90970500Y-54602500D02*
X90970500Y-71747500D01*
X83985500Y-72382500D02*
X82080500Y-74287500D01*
X91605500Y-72382500D02*
X83985500Y-72382500D01*
X92748500Y-80510500D02*
X96685500Y-84447500D01*
X92888200Y-80370800D02*
X92748500Y-80510500D01*
X92888200Y-75481300D02*
X92888200Y-80370800D01*
X91605500Y-74198600D02*
X92888200Y-75481300D01*
X96685500Y-84447500D02*
X98590500Y-84447500D01*
X91605500Y-72382500D02*
X91605500Y-74198600D01*
%TO.N,+5V*%
X98590500Y-86987500D02*
X94780500Y-86987500D01*
X90970500Y-86987500D02*
X90970500Y-85717500D01*
X87160500Y-81907500D02*
X87160500Y-79367500D01*
X90970500Y-85717500D02*
X87160500Y-81907500D01*
X90970500Y-93256500D02*
X90970500Y-86987500D01*
X91313000Y-93599000D02*
X90970500Y-93256500D01*
%TO.N,Net-(Q1-Pad1)*%
X98583000Y-71755000D02*
X98590500Y-71747500D01*
X79540500Y-79367500D02*
X79540500Y-74287500D01*
%TO.N,Net-(Q1-Pad2)*%
X80810500Y-75557500D02*
X80810500Y-74287500D01*
X82080500Y-76827500D02*
X80810500Y-75557500D01*
X82080500Y-78097500D02*
X82080500Y-76827500D01*
X83350500Y-79367500D02*
X82080500Y-78097500D01*
%TO.N,Net-(R1-Pad1)*%
X75730500Y-86987500D02*
X79540500Y-86987500D01*
D24*
%TO.N,Net-(J1-Pad5)*%
X83693000Y-87330000D02*
X83350500Y-86987500D01*
D23*
X83693000Y-93599000D02*
X83693000Y-87330000D01*
X87160500Y-86987500D02*
X83350500Y-86987500D01*
%TO.N,Net-(J2-Pad1)*%
X96050500Y-74287500D02*
X98590500Y-74287500D01*
X94145500Y-72382500D02*
X96050500Y-74287500D01*
%TO.N,Net-(D2-Pad2)*%
X93002500Y-92748500D02*
X93853000Y-93599000D01*
D25*
X92939000Y-92685000D02*
X93002500Y-92748500D01*
D23*
X92888200Y-92634200D02*
X92939000Y-92685000D01*
X92888200Y-84307800D02*
X92888200Y-92634200D01*
X92939000Y-84257000D02*
X92888200Y-84307800D01*
X92939000Y-84257000D02*
X92939000Y-83990300D01*
X90970500Y-82021800D02*
X90970500Y-76827500D01*
X92939000Y-83990300D02*
X90970500Y-82021800D01*
%TD*%
D26*
%TO.N,GND*%
X95923500Y-55237500D02*
X95925940Y-55262276D01*
X95933167Y-55286101D01*
X95944903Y-55308057D01*
X95960697Y-55327303D01*
X95979943Y-55343097D01*
X96001899Y-55354833D01*
X96025724Y-55362060D01*
X96050500Y-55364500D01*
X102273500Y-55364500D01*
X102273500Y-98290500D01*
X95415500Y-98290500D01*
X95390724Y-98292940D01*
X95366899Y-98300167D01*
X95344943Y-98311903D01*
X95325697Y-98327697D01*
X95309903Y-98346943D01*
X95298167Y-98368899D01*
X95290940Y-98392724D01*
X95288500Y-98417500D01*
X95288500Y-104005500D01*
X79667500Y-104005500D01*
X79667500Y-98417500D01*
X79665060Y-98392724D01*
X79657833Y-98368899D01*
X79646097Y-98346943D01*
X79630303Y-98327697D01*
X79611057Y-98311903D01*
X79589101Y-98300167D01*
X79565276Y-98292940D01*
X79540500Y-98290500D01*
X72047500Y-98290500D01*
X72047500Y-93955891D01*
X79711519Y-93955891D01*
X79808843Y-94230252D01*
X79957822Y-94480355D01*
X80152731Y-94696588D01*
X80386080Y-94870641D01*
X80648901Y-94995825D01*
X80796110Y-95040476D01*
X81026000Y-94919155D01*
X81026000Y-93726000D01*
X79832186Y-93726000D01*
X79711519Y-93955891D01*
X72047500Y-93955891D01*
X72047500Y-93242109D01*
X79711519Y-93242109D01*
X79832186Y-93472000D01*
X81026000Y-93472000D01*
X81026000Y-92278845D01*
X81280000Y-92278845D01*
X81280000Y-93472000D01*
X81300000Y-93472000D01*
X81300000Y-93726000D01*
X81280000Y-93726000D01*
X81280000Y-94919155D01*
X81509890Y-95040476D01*
X81657099Y-94995825D01*
X81919920Y-94870641D01*
X82153269Y-94696588D01*
X82348178Y-94480355D01*
X82417805Y-94363466D01*
X82539525Y-94545632D01*
X82746368Y-94752475D01*
X82989589Y-94914990D01*
X83259842Y-95026932D01*
X83546740Y-95084000D01*
X83839260Y-95084000D01*
X84126158Y-95026932D01*
X84396411Y-94914990D01*
X84639632Y-94752475D01*
X84846475Y-94545632D01*
X84963000Y-94371240D01*
X85079525Y-94545632D01*
X85286368Y-94752475D01*
X85529589Y-94914990D01*
X85799842Y-95026932D01*
X86086740Y-95084000D01*
X86379260Y-95084000D01*
X86666158Y-95026932D01*
X86936411Y-94914990D01*
X87179632Y-94752475D01*
X87386475Y-94545632D01*
X87508195Y-94363466D01*
X87577822Y-94480355D01*
X87772731Y-94696588D01*
X88006080Y-94870641D01*
X88268901Y-94995825D01*
X88416110Y-95040476D01*
X88646000Y-94919155D01*
X88646000Y-93726000D01*
X88626000Y-93726000D01*
X88626000Y-93472000D01*
X88646000Y-93472000D01*
X88646000Y-92278845D01*
X88416110Y-92157524D01*
X88268901Y-92202175D01*
X88006080Y-92327359D01*
X87772731Y-92501412D01*
X87577822Y-92717645D01*
X87508195Y-92834534D01*
X87386475Y-92652368D01*
X87179632Y-92445525D01*
X86936411Y-92283010D01*
X86666158Y-92171068D01*
X86379260Y-92114000D01*
X86086740Y-92114000D01*
X85799842Y-92171068D01*
X85529589Y-92283010D01*
X85286368Y-92445525D01*
X85079525Y-92652368D01*
X84963000Y-92826760D01*
X84846475Y-92652368D01*
X84828000Y-92633893D01*
X84828000Y-88122500D01*
X86276216Y-88122500D01*
X86480773Y-88259180D01*
X86741926Y-88367353D01*
X87019165Y-88422500D01*
X87301835Y-88422500D01*
X87579074Y-88367353D01*
X87840227Y-88259180D01*
X88075259Y-88102137D01*
X88275137Y-87902259D01*
X88432180Y-87667227D01*
X88540353Y-87406074D01*
X88595500Y-87128835D01*
X88595500Y-86846165D01*
X88540353Y-86568926D01*
X88432180Y-86307773D01*
X88275137Y-86072741D01*
X88075259Y-85872863D01*
X87840227Y-85715820D01*
X87579074Y-85607647D01*
X87301835Y-85552500D01*
X87019165Y-85552500D01*
X86741926Y-85607647D01*
X86480773Y-85715820D01*
X86276216Y-85852500D01*
X84234784Y-85852500D01*
X84030227Y-85715820D01*
X83769074Y-85607647D01*
X83491835Y-85552500D01*
X83209165Y-85552500D01*
X82931926Y-85607647D01*
X82670773Y-85715820D01*
X82435741Y-85872863D01*
X82235863Y-86072741D01*
X82078820Y-86307773D01*
X81970647Y-86568926D01*
X81915500Y-86846165D01*
X81915500Y-87128835D01*
X81970647Y-87406074D01*
X82078820Y-87667227D01*
X82235863Y-87902259D01*
X82435741Y-88102137D01*
X82558001Y-88183828D01*
X82558000Y-92633893D01*
X82539525Y-92652368D01*
X82417805Y-92834534D01*
X82348178Y-92717645D01*
X82153269Y-92501412D01*
X81919920Y-92327359D01*
X81657099Y-92202175D01*
X81509890Y-92157524D01*
X81280000Y-92278845D01*
X81026000Y-92278845D01*
X80796110Y-92157524D01*
X80648901Y-92202175D01*
X80386080Y-92327359D01*
X80152731Y-92501412D01*
X79957822Y-92717645D01*
X79808843Y-92967748D01*
X79711519Y-93242109D01*
X72047500Y-93242109D01*
X72047500Y-71747500D01*
X74088557Y-71747500D01*
X74116264Y-72028809D01*
X74198318Y-72299308D01*
X74331568Y-72548601D01*
X74510892Y-72767108D01*
X74729399Y-72946432D01*
X74862358Y-73017500D01*
X74729399Y-73088568D01*
X74510892Y-73267892D01*
X74331568Y-73486399D01*
X74198318Y-73735692D01*
X74116264Y-74006191D01*
X74088557Y-74287500D01*
X74116264Y-74568809D01*
X74198318Y-74839308D01*
X74331568Y-75088601D01*
X74510892Y-75307108D01*
X74729399Y-75486432D01*
X74862358Y-75557500D01*
X74729399Y-75628568D01*
X74510892Y-75807892D01*
X74331568Y-76026399D01*
X74198318Y-76275692D01*
X74116264Y-76546191D01*
X74088557Y-76827500D01*
X74116264Y-77108809D01*
X74198318Y-77379308D01*
X74331568Y-77628601D01*
X74510892Y-77847108D01*
X74729399Y-78026432D01*
X74862358Y-78097500D01*
X74729399Y-78168568D01*
X74510892Y-78347892D01*
X74331568Y-78566399D01*
X74198318Y-78815692D01*
X74116264Y-79086191D01*
X74088557Y-79367500D01*
X74116264Y-79648809D01*
X74198318Y-79919308D01*
X74331568Y-80168601D01*
X74510892Y-80387108D01*
X74729399Y-80566432D01*
X74862358Y-80637500D01*
X74729399Y-80708568D01*
X74510892Y-80887892D01*
X74331568Y-81106399D01*
X74198318Y-81355692D01*
X74116264Y-81626191D01*
X74088557Y-81907500D01*
X74116264Y-82188809D01*
X74198318Y-82459308D01*
X74331568Y-82708601D01*
X74510892Y-82927108D01*
X74729399Y-83106432D01*
X74862358Y-83177500D01*
X74729399Y-83248568D01*
X74510892Y-83427892D01*
X74331568Y-83646399D01*
X74198318Y-83895692D01*
X74116264Y-84166191D01*
X74088557Y-84447500D01*
X74116264Y-84728809D01*
X74198318Y-84999308D01*
X74331568Y-85248601D01*
X74510892Y-85467108D01*
X74729399Y-85646432D01*
X74862358Y-85717500D01*
X74729399Y-85788568D01*
X74510892Y-85967892D01*
X74331568Y-86186399D01*
X74198318Y-86435692D01*
X74116264Y-86706191D01*
X74088557Y-86987500D01*
X74116264Y-87268809D01*
X74198318Y-87539308D01*
X74331568Y-87788601D01*
X74510892Y-88007108D01*
X74729399Y-88186432D01*
X74978692Y-88319682D01*
X75249191Y-88401736D01*
X75460008Y-88422500D01*
X76000992Y-88422500D01*
X76211809Y-88401736D01*
X76482308Y-88319682D01*
X76731601Y-88186432D01*
X76809502Y-88122500D01*
X78656216Y-88122500D01*
X78860773Y-88259180D01*
X79121926Y-88367353D01*
X79399165Y-88422500D01*
X79681835Y-88422500D01*
X79959074Y-88367353D01*
X80220227Y-88259180D01*
X80455259Y-88102137D01*
X80655137Y-87902259D01*
X80812180Y-87667227D01*
X80920353Y-87406074D01*
X80975500Y-87128835D01*
X80975500Y-86846165D01*
X80920353Y-86568926D01*
X80812180Y-86307773D01*
X80655137Y-86072741D01*
X80455259Y-85872863D01*
X80220227Y-85715820D01*
X79959074Y-85607647D01*
X79681835Y-85552500D01*
X79399165Y-85552500D01*
X79121926Y-85607647D01*
X78860773Y-85715820D01*
X78656216Y-85852500D01*
X76809502Y-85852500D01*
X76731601Y-85788568D01*
X76598642Y-85717500D01*
X76731601Y-85646432D01*
X76950108Y-85467108D01*
X77129432Y-85248601D01*
X77262682Y-84999308D01*
X77344736Y-84728809D01*
X77372443Y-84447500D01*
X77344736Y-84166191D01*
X77262682Y-83895692D01*
X77129432Y-83646399D01*
X76950108Y-83427892D01*
X76731601Y-83248568D01*
X76598642Y-83177500D01*
X76731601Y-83106432D01*
X76950108Y-82927108D01*
X77129432Y-82708601D01*
X77262682Y-82459308D01*
X77344736Y-82188809D01*
X77372443Y-81907500D01*
X77344736Y-81626191D01*
X77262682Y-81355692D01*
X77129432Y-81106399D01*
X76950108Y-80887892D01*
X76731601Y-80708568D01*
X76598642Y-80637500D01*
X76731601Y-80566432D01*
X76950108Y-80387108D01*
X77129432Y-80168601D01*
X77262682Y-79919308D01*
X77344736Y-79648809D01*
X77372443Y-79367500D01*
X77358523Y-79226165D01*
X78105500Y-79226165D01*
X78105500Y-79508835D01*
X78160647Y-79786074D01*
X78268820Y-80047227D01*
X78425863Y-80282259D01*
X78625741Y-80482137D01*
X78860773Y-80639180D01*
X79121926Y-80747353D01*
X79399165Y-80802500D01*
X79681835Y-80802500D01*
X79959074Y-80747353D01*
X80220227Y-80639180D01*
X80455259Y-80482137D01*
X80655137Y-80282259D01*
X80812180Y-80047227D01*
X80920353Y-79786074D01*
X80975500Y-79508835D01*
X80975500Y-79226165D01*
X80920353Y-78948926D01*
X80812180Y-78687773D01*
X80675500Y-78483216D01*
X80675500Y-77027632D01*
X80945500Y-77297632D01*
X80945500Y-78041749D01*
X80940009Y-78097500D01*
X80945500Y-78153251D01*
X80961923Y-78319998D01*
X81026824Y-78533946D01*
X81132216Y-78731123D01*
X81274051Y-78903949D01*
X81317365Y-78939496D01*
X81922650Y-79544782D01*
X81970647Y-79786074D01*
X82078820Y-80047227D01*
X82235863Y-80282259D01*
X82435741Y-80482137D01*
X82670773Y-80639180D01*
X82931926Y-80747353D01*
X83209165Y-80802500D01*
X83491835Y-80802500D01*
X83769074Y-80747353D01*
X84030227Y-80639180D01*
X84265259Y-80482137D01*
X84465137Y-80282259D01*
X84622180Y-80047227D01*
X84730353Y-79786074D01*
X84785500Y-79508835D01*
X84785500Y-79226165D01*
X85725500Y-79226165D01*
X85725500Y-79508835D01*
X85780647Y-79786074D01*
X85888820Y-80047227D01*
X86025501Y-80251785D01*
X86025500Y-81851748D01*
X86020009Y-81907500D01*
X86036757Y-82077551D01*
X86041923Y-82129998D01*
X86106824Y-82343946D01*
X86212216Y-82541123D01*
X86354051Y-82713949D01*
X86397365Y-82749496D01*
X89284547Y-85636680D01*
X89280998Y-85643320D01*
X89244688Y-85763018D01*
X89232428Y-85887500D01*
X89232428Y-88087500D01*
X89244688Y-88211982D01*
X89280998Y-88331680D01*
X89339963Y-88441994D01*
X89419315Y-88538685D01*
X89516006Y-88618037D01*
X89626320Y-88677002D01*
X89746018Y-88713312D01*
X89835501Y-88722125D01*
X89835500Y-92570452D01*
X89773269Y-92501412D01*
X89539920Y-92327359D01*
X89277099Y-92202175D01*
X89129890Y-92157524D01*
X88900000Y-92278845D01*
X88900000Y-93472000D01*
X88920000Y-93472000D01*
X88920000Y-93726000D01*
X88900000Y-93726000D01*
X88900000Y-94919155D01*
X89129890Y-95040476D01*
X89277099Y-94995825D01*
X89539920Y-94870641D01*
X89773269Y-94696588D01*
X89968178Y-94480355D01*
X90037805Y-94363466D01*
X90159525Y-94545632D01*
X90366368Y-94752475D01*
X90609589Y-94914990D01*
X90879842Y-95026932D01*
X91166740Y-95084000D01*
X91459260Y-95084000D01*
X91746158Y-95026932D01*
X92016411Y-94914990D01*
X92259632Y-94752475D01*
X92391487Y-94620620D01*
X92413498Y-94693180D01*
X92472463Y-94803494D01*
X92551815Y-94900185D01*
X92648506Y-94979537D01*
X92758820Y-95038502D01*
X92878518Y-95074812D01*
X93003000Y-95087072D01*
X94703000Y-95087072D01*
X94827482Y-95074812D01*
X94947180Y-95038502D01*
X95057494Y-94979537D01*
X95154185Y-94900185D01*
X95233537Y-94803494D01*
X95292502Y-94693180D01*
X95328812Y-94573482D01*
X95341072Y-94449000D01*
X95341072Y-92749000D01*
X95328812Y-92624518D01*
X95292502Y-92504820D01*
X95233537Y-92394506D01*
X95154185Y-92297815D01*
X95057494Y-92218463D01*
X94947180Y-92159498D01*
X94827482Y-92123188D01*
X94703000Y-92110928D01*
X94023200Y-92110928D01*
X94023200Y-88725572D01*
X95880500Y-88725572D01*
X96004982Y-88713312D01*
X96124680Y-88677002D01*
X96234994Y-88618037D01*
X96331685Y-88538685D01*
X96411037Y-88441994D01*
X96470002Y-88331680D01*
X96506312Y-88211982D01*
X96515125Y-88122500D01*
X97511498Y-88122500D01*
X97589399Y-88186432D01*
X97838692Y-88319682D01*
X98109191Y-88401736D01*
X98320008Y-88422500D01*
X98860992Y-88422500D01*
X99071809Y-88401736D01*
X99342308Y-88319682D01*
X99591601Y-88186432D01*
X99810108Y-88007108D01*
X99989432Y-87788601D01*
X100122682Y-87539308D01*
X100204736Y-87268809D01*
X100232443Y-86987500D01*
X100204736Y-86706191D01*
X100122682Y-86435692D01*
X99989432Y-86186399D01*
X99810108Y-85967892D01*
X99591601Y-85788568D01*
X99462155Y-85719378D01*
X99479727Y-85711930D01*
X99713162Y-85553173D01*
X99911139Y-85351925D01*
X100066051Y-85115921D01*
X100171944Y-84854230D01*
X100182404Y-84796539D01*
X100060415Y-84574500D01*
X98717500Y-84574500D01*
X98717500Y-84594500D01*
X98463500Y-84594500D01*
X98463500Y-84574500D01*
X97120585Y-84574500D01*
X96998596Y-84796539D01*
X97009056Y-84854230D01*
X97114949Y-85115921D01*
X97269861Y-85351925D01*
X97467838Y-85553173D01*
X97701273Y-85711930D01*
X97718845Y-85719378D01*
X97589399Y-85788568D01*
X97511498Y-85852500D01*
X96515125Y-85852500D01*
X96506312Y-85763018D01*
X96470002Y-85643320D01*
X96411037Y-85533006D01*
X96331685Y-85436315D01*
X96234994Y-85356963D01*
X96124680Y-85297998D01*
X96004982Y-85261688D01*
X95880500Y-85249428D01*
X94023200Y-85249428D01*
X94023200Y-84592824D01*
X94057577Y-84479499D01*
X94074000Y-84312752D01*
X94074000Y-84312751D01*
X94079491Y-84257001D01*
X94074000Y-84201249D01*
X94074000Y-84046041D01*
X94079490Y-83990299D01*
X94074000Y-83934557D01*
X94074000Y-83934549D01*
X94057577Y-83767802D01*
X93992676Y-83553854D01*
X93887284Y-83356677D01*
X93745449Y-83183851D01*
X93702141Y-83148309D01*
X92105500Y-81551669D01*
X92105500Y-78146161D01*
X92318163Y-77933498D01*
X92508037Y-77649331D01*
X92638825Y-77333581D01*
X92705500Y-76998383D01*
X92705500Y-76656617D01*
X92638825Y-76321419D01*
X92508037Y-76005669D01*
X92318163Y-75721502D01*
X92076498Y-75479837D01*
X91792331Y-75289963D01*
X91476581Y-75159175D01*
X91141383Y-75092500D01*
X90799617Y-75092500D01*
X90464419Y-75159175D01*
X90148669Y-75289963D01*
X89864502Y-75479837D01*
X89622837Y-75721502D01*
X89432963Y-76005669D01*
X89302175Y-76321419D01*
X89235500Y-76656617D01*
X89235500Y-76998383D01*
X89302175Y-77333581D01*
X89432963Y-77649331D01*
X89622837Y-77933498D01*
X89835501Y-78146162D01*
X89835500Y-81966048D01*
X89830009Y-82021800D01*
X89835500Y-82077551D01*
X89851923Y-82244298D01*
X89916824Y-82458246D01*
X90022216Y-82655423D01*
X90164051Y-82828249D01*
X90207365Y-82863796D01*
X91753200Y-84409632D01*
X91753200Y-84891561D01*
X91733646Y-84875513D01*
X88295500Y-81437369D01*
X88295500Y-80251784D01*
X88432180Y-80047227D01*
X88540353Y-79786074D01*
X88595500Y-79508835D01*
X88595500Y-79226165D01*
X88540353Y-78948926D01*
X88432180Y-78687773D01*
X88275137Y-78452741D01*
X88075259Y-78252863D01*
X87840227Y-78095820D01*
X87579074Y-77987647D01*
X87301835Y-77932500D01*
X87019165Y-77932500D01*
X86741926Y-77987647D01*
X86480773Y-78095820D01*
X86245741Y-78252863D01*
X86045863Y-78452741D01*
X85888820Y-78687773D01*
X85780647Y-78948926D01*
X85725500Y-79226165D01*
X84785500Y-79226165D01*
X84730353Y-78948926D01*
X84622180Y-78687773D01*
X84465137Y-78452741D01*
X84265259Y-78252863D01*
X84030227Y-78095820D01*
X83769074Y-77987647D01*
X83527782Y-77939650D01*
X83215500Y-77627369D01*
X83215500Y-76883243D01*
X83220990Y-76827499D01*
X83215500Y-76771755D01*
X83215500Y-76771748D01*
X83199077Y-76605001D01*
X83134176Y-76391053D01*
X83028784Y-76193877D01*
X82886949Y-76021051D01*
X82843640Y-75985508D01*
X82470739Y-75612608D01*
X82657382Y-75529775D01*
X82844758Y-75397684D01*
X83002764Y-75231576D01*
X83125328Y-75037834D01*
X83207739Y-74823904D01*
X83246831Y-74598007D01*
X83087098Y-74414500D01*
X82207500Y-74414500D01*
X82207500Y-74434500D01*
X81970500Y-74434500D01*
X81970500Y-74005521D01*
X81953715Y-73835100D01*
X81953500Y-73834391D01*
X81953500Y-73069337D01*
X82207500Y-73069337D01*
X82207500Y-74160500D01*
X83087098Y-74160500D01*
X83246831Y-73976993D01*
X83207739Y-73751096D01*
X83125328Y-73537166D01*
X83002764Y-73343424D01*
X82844758Y-73177316D01*
X82657382Y-73045225D01*
X82447837Y-72952228D01*
X82386310Y-72943536D01*
X82207500Y-73069337D01*
X81953500Y-73069337D01*
X81774690Y-72943536D01*
X81713163Y-72952228D01*
X81503618Y-73045225D01*
X81445169Y-73086429D01*
X81256559Y-72985615D01*
X81037899Y-72919285D01*
X80810500Y-72896888D01*
X80583100Y-72919285D01*
X80374402Y-72982593D01*
X80309680Y-72947998D01*
X80189982Y-72911688D01*
X80065500Y-72899428D01*
X79015500Y-72899428D01*
X78891018Y-72911688D01*
X78771320Y-72947998D01*
X78661006Y-73006963D01*
X78564315Y-73086315D01*
X78484963Y-73183006D01*
X78425998Y-73293320D01*
X78389688Y-73413018D01*
X78377428Y-73537500D01*
X78377428Y-75037500D01*
X78389688Y-75161982D01*
X78405501Y-75214110D01*
X78405500Y-78483216D01*
X78268820Y-78687773D01*
X78160647Y-78948926D01*
X78105500Y-79226165D01*
X77358523Y-79226165D01*
X77344736Y-79086191D01*
X77262682Y-78815692D01*
X77129432Y-78566399D01*
X76950108Y-78347892D01*
X76731601Y-78168568D01*
X76598642Y-78097500D01*
X76731601Y-78026432D01*
X76950108Y-77847108D01*
X77129432Y-77628601D01*
X77262682Y-77379308D01*
X77344736Y-77108809D01*
X77372443Y-76827500D01*
X77344736Y-76546191D01*
X77262682Y-76275692D01*
X77129432Y-76026399D01*
X76950108Y-75807892D01*
X76731601Y-75628568D01*
X76598642Y-75557500D01*
X76731601Y-75486432D01*
X76950108Y-75307108D01*
X77129432Y-75088601D01*
X77262682Y-74839308D01*
X77344736Y-74568809D01*
X77372443Y-74287500D01*
X77344736Y-74006191D01*
X77262682Y-73735692D01*
X77129432Y-73486399D01*
X76950108Y-73267892D01*
X76731601Y-73088568D01*
X76598642Y-73017500D01*
X76731601Y-72946432D01*
X76950108Y-72767108D01*
X76972854Y-72739391D01*
X90164019Y-72739391D01*
X90261343Y-73013752D01*
X90410322Y-73263855D01*
X90605231Y-73480088D01*
X90838580Y-73654141D01*
X91101401Y-73779325D01*
X91248610Y-73823976D01*
X91478500Y-73702655D01*
X91478500Y-72509500D01*
X90284686Y-72509500D01*
X90164019Y-72739391D01*
X76972854Y-72739391D01*
X77129432Y-72548601D01*
X77262682Y-72299308D01*
X77344736Y-72028809D01*
X77345051Y-72025609D01*
X90164019Y-72025609D01*
X90284686Y-72255500D01*
X91478500Y-72255500D01*
X91478500Y-71062345D01*
X91732500Y-71062345D01*
X91732500Y-72255500D01*
X91752500Y-72255500D01*
X91752500Y-72509500D01*
X91732500Y-72509500D01*
X91732500Y-73702655D01*
X91962390Y-73823976D01*
X92109599Y-73779325D01*
X92372420Y-73654141D01*
X92605769Y-73480088D01*
X92681534Y-73396034D01*
X92705998Y-73476680D01*
X92764963Y-73586994D01*
X92844315Y-73683685D01*
X92941006Y-73763037D01*
X93051320Y-73822002D01*
X93171018Y-73858312D01*
X93295500Y-73870572D01*
X94028441Y-73870572D01*
X95208509Y-75050641D01*
X95244051Y-75093949D01*
X95361181Y-75190075D01*
X95286581Y-75159175D01*
X94951383Y-75092500D01*
X94609617Y-75092500D01*
X94274419Y-75159175D01*
X93958669Y-75289963D01*
X93674502Y-75479837D01*
X93432837Y-75721502D01*
X93242963Y-76005669D01*
X93112175Y-76321419D01*
X93045500Y-76656617D01*
X93045500Y-76998383D01*
X93112175Y-77333581D01*
X93242963Y-77649331D01*
X93432837Y-77933498D01*
X93674502Y-78175163D01*
X93958669Y-78365037D01*
X94274419Y-78495825D01*
X94609617Y-78562500D01*
X94951383Y-78562500D01*
X95286581Y-78495825D01*
X95602331Y-78365037D01*
X95886498Y-78175163D01*
X96128163Y-77933498D01*
X96318037Y-77649331D01*
X96448825Y-77333581D01*
X96515500Y-76998383D01*
X96515500Y-76656617D01*
X96448825Y-76321419D01*
X96318037Y-76005669D01*
X96128163Y-75721502D01*
X95886498Y-75479837D01*
X95732960Y-75377246D01*
X95828001Y-75406077D01*
X95900973Y-75413264D01*
X96050500Y-75427991D01*
X96106252Y-75422500D01*
X97511498Y-75422500D01*
X97589399Y-75486432D01*
X97722358Y-75557500D01*
X97589399Y-75628568D01*
X97370892Y-75807892D01*
X97191568Y-76026399D01*
X97058318Y-76275692D01*
X96976264Y-76546191D01*
X96948557Y-76827500D01*
X96976264Y-77108809D01*
X97058318Y-77379308D01*
X97191568Y-77628601D01*
X97370892Y-77847108D01*
X97589399Y-78026432D01*
X97722358Y-78097500D01*
X97589399Y-78168568D01*
X97370892Y-78347892D01*
X97191568Y-78566399D01*
X97058318Y-78815692D01*
X96976264Y-79086191D01*
X96948557Y-79367500D01*
X96976264Y-79648809D01*
X97058318Y-79919308D01*
X97191568Y-80168601D01*
X97370892Y-80387108D01*
X97589399Y-80566432D01*
X97722358Y-80637500D01*
X97589399Y-80708568D01*
X97370892Y-80887892D01*
X97191568Y-81106399D01*
X97058318Y-81355692D01*
X96976264Y-81626191D01*
X96948557Y-81907500D01*
X96976264Y-82188809D01*
X97058318Y-82459308D01*
X97191568Y-82708601D01*
X97370892Y-82927108D01*
X97589399Y-83106432D01*
X97718845Y-83175622D01*
X97701273Y-83183070D01*
X97467838Y-83341827D01*
X97269861Y-83543075D01*
X97114949Y-83779079D01*
X97009056Y-84040770D01*
X96998596Y-84098461D01*
X97120585Y-84320500D01*
X98463500Y-84320500D01*
X98463500Y-84300500D01*
X98717500Y-84300500D01*
X98717500Y-84320500D01*
X100060415Y-84320500D01*
X100182404Y-84098461D01*
X100171944Y-84040770D01*
X100066051Y-83779079D01*
X99911139Y-83543075D01*
X99713162Y-83341827D01*
X99479727Y-83183070D01*
X99462155Y-83175622D01*
X99591601Y-83106432D01*
X99810108Y-82927108D01*
X99989432Y-82708601D01*
X100122682Y-82459308D01*
X100204736Y-82188809D01*
X100232443Y-81907500D01*
X100204736Y-81626191D01*
X100122682Y-81355692D01*
X99989432Y-81106399D01*
X99810108Y-80887892D01*
X99591601Y-80708568D01*
X99458642Y-80637500D01*
X99591601Y-80566432D01*
X99810108Y-80387108D01*
X99989432Y-80168601D01*
X100122682Y-79919308D01*
X100204736Y-79648809D01*
X100232443Y-79367500D01*
X100204736Y-79086191D01*
X100122682Y-78815692D01*
X99989432Y-78566399D01*
X99810108Y-78347892D01*
X99591601Y-78168568D01*
X99458642Y-78097500D01*
X99591601Y-78026432D01*
X99810108Y-77847108D01*
X99989432Y-77628601D01*
X100122682Y-77379308D01*
X100204736Y-77108809D01*
X100232443Y-76827500D01*
X100204736Y-76546191D01*
X100122682Y-76275692D01*
X99989432Y-76026399D01*
X99810108Y-75807892D01*
X99591601Y-75628568D01*
X99458642Y-75557500D01*
X99591601Y-75486432D01*
X99810108Y-75307108D01*
X99989432Y-75088601D01*
X100122682Y-74839308D01*
X100204736Y-74568809D01*
X100232443Y-74287500D01*
X100204736Y-74006191D01*
X100122682Y-73735692D01*
X99989432Y-73486399D01*
X99810108Y-73267892D01*
X99591601Y-73088568D01*
X99458642Y-73017500D01*
X99591601Y-72946432D01*
X99810108Y-72767108D01*
X99989432Y-72548601D01*
X100122682Y-72299308D01*
X100204736Y-72028809D01*
X100232443Y-71747500D01*
X100204736Y-71466191D01*
X100122682Y-71195692D01*
X99989432Y-70946399D01*
X99810108Y-70727892D01*
X99591601Y-70548568D01*
X99458642Y-70477500D01*
X99591601Y-70406432D01*
X99810108Y-70227108D01*
X99989432Y-70008601D01*
X100122682Y-69759308D01*
X100204736Y-69488809D01*
X100232443Y-69207500D01*
X100204736Y-68926191D01*
X100122682Y-68655692D01*
X99989432Y-68406399D01*
X99810108Y-68187892D01*
X99591601Y-68008568D01*
X99342308Y-67875318D01*
X99071809Y-67793264D01*
X98860992Y-67772500D01*
X98320008Y-67772500D01*
X98109191Y-67793264D01*
X97838692Y-67875318D01*
X97589399Y-68008568D01*
X97370892Y-68187892D01*
X97191568Y-68406399D01*
X97058318Y-68655692D01*
X96976264Y-68926191D01*
X96948557Y-69207500D01*
X96976264Y-69488809D01*
X97058318Y-69759308D01*
X97191568Y-70008601D01*
X97370892Y-70227108D01*
X97589399Y-70406432D01*
X97722358Y-70477500D01*
X97589399Y-70548568D01*
X97370892Y-70727892D01*
X97191568Y-70946399D01*
X97058318Y-71195692D01*
X96976264Y-71466191D01*
X96948557Y-71747500D01*
X96976264Y-72028809D01*
X97058318Y-72299308D01*
X97191568Y-72548601D01*
X97370892Y-72767108D01*
X97589399Y-72946432D01*
X97722358Y-73017500D01*
X97589399Y-73088568D01*
X97511498Y-73152500D01*
X96520632Y-73152500D01*
X95633572Y-72265441D01*
X95633572Y-71532500D01*
X95621312Y-71408018D01*
X95585002Y-71288320D01*
X95526037Y-71178006D01*
X95446685Y-71081315D01*
X95349994Y-71001963D01*
X95239680Y-70942998D01*
X95119982Y-70906688D01*
X94995500Y-70894428D01*
X93295500Y-70894428D01*
X93171018Y-70906688D01*
X93051320Y-70942998D01*
X92941006Y-71001963D01*
X92844315Y-71081315D01*
X92764963Y-71178006D01*
X92705998Y-71288320D01*
X92681534Y-71368966D01*
X92605769Y-71284912D01*
X92372420Y-71110859D01*
X92109599Y-70985675D01*
X91962390Y-70941024D01*
X91732500Y-71062345D01*
X91478500Y-71062345D01*
X91248610Y-70941024D01*
X91101401Y-70985675D01*
X90838580Y-71110859D01*
X90605231Y-71284912D01*
X90410322Y-71501145D01*
X90261343Y-71751248D01*
X90164019Y-72025609D01*
X77345051Y-72025609D01*
X77372443Y-71747500D01*
X77344736Y-71466191D01*
X77262682Y-71195692D01*
X77129432Y-70946399D01*
X76997024Y-70785059D01*
X77084994Y-70738037D01*
X77181685Y-70658685D01*
X77261037Y-70561994D01*
X77320002Y-70451680D01*
X77356312Y-70331982D01*
X77368572Y-70207500D01*
X77368572Y-68207500D01*
X77356312Y-68083018D01*
X77320002Y-67963320D01*
X77261037Y-67853006D01*
X77181685Y-67756315D01*
X77084994Y-67676963D01*
X76974680Y-67617998D01*
X76854982Y-67581688D01*
X76730500Y-67569428D01*
X74730500Y-67569428D01*
X74606018Y-67581688D01*
X74486320Y-67617998D01*
X74376006Y-67676963D01*
X74279315Y-67756315D01*
X74199963Y-67853006D01*
X74140998Y-67963320D01*
X74104688Y-68083018D01*
X74092428Y-68207500D01*
X74092428Y-70207500D01*
X74104688Y-70331982D01*
X74140998Y-70451680D01*
X74199963Y-70561994D01*
X74279315Y-70658685D01*
X74376006Y-70738037D01*
X74463976Y-70785059D01*
X74331568Y-70946399D01*
X74198318Y-71195692D01*
X74116264Y-71466191D01*
X74088557Y-71747500D01*
X72047500Y-71747500D01*
X72047500Y-55364500D01*
X78270500Y-55364500D01*
X78295276Y-55362060D01*
X78319101Y-55354833D01*
X78341057Y-55343097D01*
X78360303Y-55327303D01*
X78376097Y-55308057D01*
X78387833Y-55286101D01*
X78395060Y-55262276D01*
X78397500Y-55237500D01*
X78397500Y-53952500D01*
X82062428Y-53952500D01*
X82062428Y-55252500D01*
X82074688Y-55376982D01*
X82110998Y-55496680D01*
X82169963Y-55606994D01*
X82249315Y-55703685D01*
X82346006Y-55783037D01*
X82456320Y-55842002D01*
X82576018Y-55878312D01*
X82700500Y-55890572D01*
X84000500Y-55890572D01*
X84124982Y-55878312D01*
X84244680Y-55842002D01*
X84354994Y-55783037D01*
X84451685Y-55703685D01*
X84531037Y-55606994D01*
X84590002Y-55496680D01*
X84626312Y-55376982D01*
X84638572Y-55252500D01*
X84638572Y-55034516D01*
X84711747Y-55211176D01*
X84852375Y-55421640D01*
X85031360Y-55600625D01*
X85241824Y-55741253D01*
X85475679Y-55838119D01*
X85723939Y-55887500D01*
X85977061Y-55887500D01*
X86225321Y-55838119D01*
X86459176Y-55741253D01*
X86669640Y-55600625D01*
X86848625Y-55421640D01*
X86989253Y-55211176D01*
X87086119Y-54977321D01*
X87135500Y-54729061D01*
X87135500Y-54475939D01*
X87145500Y-54475939D01*
X87145500Y-54729061D01*
X87194881Y-54977321D01*
X87291747Y-55211176D01*
X87432375Y-55421640D01*
X87611360Y-55600625D01*
X87821824Y-55741253D01*
X88055679Y-55838119D01*
X88303939Y-55887500D01*
X88557061Y-55887500D01*
X88805321Y-55838119D01*
X89039176Y-55741253D01*
X89249640Y-55600625D01*
X89362238Y-55488027D01*
X90264578Y-55488027D01*
X90317966Y-55716701D01*
X90547874Y-55822595D01*
X90794024Y-55881602D01*
X91046955Y-55891452D01*
X91296949Y-55851770D01*
X91534396Y-55764078D01*
X91623034Y-55716701D01*
X91676422Y-55488027D01*
X90970500Y-54782105D01*
X90264578Y-55488027D01*
X89362238Y-55488027D01*
X89428625Y-55421640D01*
X89569253Y-55211176D01*
X89666119Y-54977321D01*
X89701040Y-54801756D01*
X89721230Y-54928949D01*
X89808922Y-55166396D01*
X89856299Y-55255034D01*
X90084973Y-55308422D01*
X90790895Y-54602500D01*
X91150105Y-54602500D01*
X91856027Y-55308422D01*
X92084701Y-55255034D01*
X92190595Y-55025126D01*
X92249602Y-54778976D01*
X92259452Y-54526045D01*
X92219770Y-54276051D01*
X92132078Y-54038604D01*
X92084701Y-53949966D01*
X91856027Y-53896578D01*
X91150105Y-54602500D01*
X90790895Y-54602500D01*
X90084973Y-53896578D01*
X89856299Y-53949966D01*
X89750405Y-54179874D01*
X89699144Y-54393711D01*
X89666119Y-54227679D01*
X89569253Y-53993824D01*
X89428625Y-53783360D01*
X89362238Y-53716973D01*
X90264578Y-53716973D01*
X90970500Y-54422895D01*
X91676422Y-53716973D01*
X91623034Y-53488299D01*
X91393126Y-53382405D01*
X91146976Y-53323398D01*
X90894045Y-53313548D01*
X90644051Y-53353230D01*
X90406604Y-53440922D01*
X90317966Y-53488299D01*
X90264578Y-53716973D01*
X89362238Y-53716973D01*
X89249640Y-53604375D01*
X89039176Y-53463747D01*
X88805321Y-53366881D01*
X88557061Y-53317500D01*
X88303939Y-53317500D01*
X88055679Y-53366881D01*
X87821824Y-53463747D01*
X87611360Y-53604375D01*
X87432375Y-53783360D01*
X87291747Y-53993824D01*
X87194881Y-54227679D01*
X87145500Y-54475939D01*
X87135500Y-54475939D01*
X87086119Y-54227679D01*
X86989253Y-53993824D01*
X86848625Y-53783360D01*
X86669640Y-53604375D01*
X86459176Y-53463747D01*
X86225321Y-53366881D01*
X85977061Y-53317500D01*
X85723939Y-53317500D01*
X85475679Y-53366881D01*
X85241824Y-53463747D01*
X85031360Y-53604375D01*
X84852375Y-53783360D01*
X84711747Y-53993824D01*
X84638572Y-54170484D01*
X84638572Y-53952500D01*
X84626312Y-53828018D01*
X84590002Y-53708320D01*
X84531037Y-53598006D01*
X84451685Y-53501315D01*
X84354994Y-53421963D01*
X84244680Y-53362998D01*
X84124982Y-53326688D01*
X84000500Y-53314428D01*
X82700500Y-53314428D01*
X82576018Y-53326688D01*
X82456320Y-53362998D01*
X82346006Y-53421963D01*
X82249315Y-53501315D01*
X82169963Y-53598006D01*
X82110998Y-53708320D01*
X82074688Y-53828018D01*
X82062428Y-53952500D01*
X78397500Y-53952500D01*
X78397500Y-49014500D01*
X95923500Y-49014500D01*
X95923500Y-55237500D01*
%TA.AperFunction,Conductor*%
D27*
G36*
X95923500Y-55237500D02*
G01*
X95925940Y-55262276D01*
X95933167Y-55286101D01*
X95944903Y-55308057D01*
X95960697Y-55327303D01*
X95979943Y-55343097D01*
X96001899Y-55354833D01*
X96025724Y-55362060D01*
X96050500Y-55364500D01*
X102273500Y-55364500D01*
X102273500Y-98290500D01*
X95415500Y-98290500D01*
X95390724Y-98292940D01*
X95366899Y-98300167D01*
X95344943Y-98311903D01*
X95325697Y-98327697D01*
X95309903Y-98346943D01*
X95298167Y-98368899D01*
X95290940Y-98392724D01*
X95288500Y-98417500D01*
X95288500Y-104005500D01*
X79667500Y-104005500D01*
X79667500Y-98417500D01*
X79665060Y-98392724D01*
X79657833Y-98368899D01*
X79646097Y-98346943D01*
X79630303Y-98327697D01*
X79611057Y-98311903D01*
X79589101Y-98300167D01*
X79565276Y-98292940D01*
X79540500Y-98290500D01*
X72047500Y-98290500D01*
X72047500Y-93955891D01*
X79711519Y-93955891D01*
X79808843Y-94230252D01*
X79957822Y-94480355D01*
X80152731Y-94696588D01*
X80386080Y-94870641D01*
X80648901Y-94995825D01*
X80796110Y-95040476D01*
X81026000Y-94919155D01*
X81026000Y-93726000D01*
X79832186Y-93726000D01*
X79711519Y-93955891D01*
X72047500Y-93955891D01*
X72047500Y-93242109D01*
X79711519Y-93242109D01*
X79832186Y-93472000D01*
X81026000Y-93472000D01*
X81026000Y-92278845D01*
X81280000Y-92278845D01*
X81280000Y-93472000D01*
X81300000Y-93472000D01*
X81300000Y-93726000D01*
X81280000Y-93726000D01*
X81280000Y-94919155D01*
X81509890Y-95040476D01*
X81657099Y-94995825D01*
X81919920Y-94870641D01*
X82153269Y-94696588D01*
X82348178Y-94480355D01*
X82417805Y-94363466D01*
X82539525Y-94545632D01*
X82746368Y-94752475D01*
X82989589Y-94914990D01*
X83259842Y-95026932D01*
X83546740Y-95084000D01*
X83839260Y-95084000D01*
X84126158Y-95026932D01*
X84396411Y-94914990D01*
X84639632Y-94752475D01*
X84846475Y-94545632D01*
X84963000Y-94371240D01*
X85079525Y-94545632D01*
X85286368Y-94752475D01*
X85529589Y-94914990D01*
X85799842Y-95026932D01*
X86086740Y-95084000D01*
X86379260Y-95084000D01*
X86666158Y-95026932D01*
X86936411Y-94914990D01*
X87179632Y-94752475D01*
X87386475Y-94545632D01*
X87508195Y-94363466D01*
X87577822Y-94480355D01*
X87772731Y-94696588D01*
X88006080Y-94870641D01*
X88268901Y-94995825D01*
X88416110Y-95040476D01*
X88646000Y-94919155D01*
X88646000Y-93726000D01*
X88626000Y-93726000D01*
X88626000Y-93472000D01*
X88646000Y-93472000D01*
X88646000Y-92278845D01*
X88416110Y-92157524D01*
X88268901Y-92202175D01*
X88006080Y-92327359D01*
X87772731Y-92501412D01*
X87577822Y-92717645D01*
X87508195Y-92834534D01*
X87386475Y-92652368D01*
X87179632Y-92445525D01*
X86936411Y-92283010D01*
X86666158Y-92171068D01*
X86379260Y-92114000D01*
X86086740Y-92114000D01*
X85799842Y-92171068D01*
X85529589Y-92283010D01*
X85286368Y-92445525D01*
X85079525Y-92652368D01*
X84963000Y-92826760D01*
X84846475Y-92652368D01*
X84828000Y-92633893D01*
X84828000Y-88122500D01*
X86276216Y-88122500D01*
X86480773Y-88259180D01*
X86741926Y-88367353D01*
X87019165Y-88422500D01*
X87301835Y-88422500D01*
X87579074Y-88367353D01*
X87840227Y-88259180D01*
X88075259Y-88102137D01*
X88275137Y-87902259D01*
X88432180Y-87667227D01*
X88540353Y-87406074D01*
X88595500Y-87128835D01*
X88595500Y-86846165D01*
X88540353Y-86568926D01*
X88432180Y-86307773D01*
X88275137Y-86072741D01*
X88075259Y-85872863D01*
X87840227Y-85715820D01*
X87579074Y-85607647D01*
X87301835Y-85552500D01*
X87019165Y-85552500D01*
X86741926Y-85607647D01*
X86480773Y-85715820D01*
X86276216Y-85852500D01*
X84234784Y-85852500D01*
X84030227Y-85715820D01*
X83769074Y-85607647D01*
X83491835Y-85552500D01*
X83209165Y-85552500D01*
X82931926Y-85607647D01*
X82670773Y-85715820D01*
X82435741Y-85872863D01*
X82235863Y-86072741D01*
X82078820Y-86307773D01*
X81970647Y-86568926D01*
X81915500Y-86846165D01*
X81915500Y-87128835D01*
X81970647Y-87406074D01*
X82078820Y-87667227D01*
X82235863Y-87902259D01*
X82435741Y-88102137D01*
X82558001Y-88183828D01*
X82558000Y-92633893D01*
X82539525Y-92652368D01*
X82417805Y-92834534D01*
X82348178Y-92717645D01*
X82153269Y-92501412D01*
X81919920Y-92327359D01*
X81657099Y-92202175D01*
X81509890Y-92157524D01*
X81280000Y-92278845D01*
X81026000Y-92278845D01*
X80796110Y-92157524D01*
X80648901Y-92202175D01*
X80386080Y-92327359D01*
X80152731Y-92501412D01*
X79957822Y-92717645D01*
X79808843Y-92967748D01*
X79711519Y-93242109D01*
X72047500Y-93242109D01*
X72047500Y-71747500D01*
X74088557Y-71747500D01*
X74116264Y-72028809D01*
X74198318Y-72299308D01*
X74331568Y-72548601D01*
X74510892Y-72767108D01*
X74729399Y-72946432D01*
X74862358Y-73017500D01*
X74729399Y-73088568D01*
X74510892Y-73267892D01*
X74331568Y-73486399D01*
X74198318Y-73735692D01*
X74116264Y-74006191D01*
X74088557Y-74287500D01*
X74116264Y-74568809D01*
X74198318Y-74839308D01*
X74331568Y-75088601D01*
X74510892Y-75307108D01*
X74729399Y-75486432D01*
X74862358Y-75557500D01*
X74729399Y-75628568D01*
X74510892Y-75807892D01*
X74331568Y-76026399D01*
X74198318Y-76275692D01*
X74116264Y-76546191D01*
X74088557Y-76827500D01*
X74116264Y-77108809D01*
X74198318Y-77379308D01*
X74331568Y-77628601D01*
X74510892Y-77847108D01*
X74729399Y-78026432D01*
X74862358Y-78097500D01*
X74729399Y-78168568D01*
X74510892Y-78347892D01*
X74331568Y-78566399D01*
X74198318Y-78815692D01*
X74116264Y-79086191D01*
X74088557Y-79367500D01*
X74116264Y-79648809D01*
X74198318Y-79919308D01*
X74331568Y-80168601D01*
X74510892Y-80387108D01*
X74729399Y-80566432D01*
X74862358Y-80637500D01*
X74729399Y-80708568D01*
X74510892Y-80887892D01*
X74331568Y-81106399D01*
X74198318Y-81355692D01*
X74116264Y-81626191D01*
X74088557Y-81907500D01*
X74116264Y-82188809D01*
X74198318Y-82459308D01*
X74331568Y-82708601D01*
X74510892Y-82927108D01*
X74729399Y-83106432D01*
X74862358Y-83177500D01*
X74729399Y-83248568D01*
X74510892Y-83427892D01*
X74331568Y-83646399D01*
X74198318Y-83895692D01*
X74116264Y-84166191D01*
X74088557Y-84447500D01*
X74116264Y-84728809D01*
X74198318Y-84999308D01*
X74331568Y-85248601D01*
X74510892Y-85467108D01*
X74729399Y-85646432D01*
X74862358Y-85717500D01*
X74729399Y-85788568D01*
X74510892Y-85967892D01*
X74331568Y-86186399D01*
X74198318Y-86435692D01*
X74116264Y-86706191D01*
X74088557Y-86987500D01*
X74116264Y-87268809D01*
X74198318Y-87539308D01*
X74331568Y-87788601D01*
X74510892Y-88007108D01*
X74729399Y-88186432D01*
X74978692Y-88319682D01*
X75249191Y-88401736D01*
X75460008Y-88422500D01*
X76000992Y-88422500D01*
X76211809Y-88401736D01*
X76482308Y-88319682D01*
X76731601Y-88186432D01*
X76809502Y-88122500D01*
X78656216Y-88122500D01*
X78860773Y-88259180D01*
X79121926Y-88367353D01*
X79399165Y-88422500D01*
X79681835Y-88422500D01*
X79959074Y-88367353D01*
X80220227Y-88259180D01*
X80455259Y-88102137D01*
X80655137Y-87902259D01*
X80812180Y-87667227D01*
X80920353Y-87406074D01*
X80975500Y-87128835D01*
X80975500Y-86846165D01*
X80920353Y-86568926D01*
X80812180Y-86307773D01*
X80655137Y-86072741D01*
X80455259Y-85872863D01*
X80220227Y-85715820D01*
X79959074Y-85607647D01*
X79681835Y-85552500D01*
X79399165Y-85552500D01*
X79121926Y-85607647D01*
X78860773Y-85715820D01*
X78656216Y-85852500D01*
X76809502Y-85852500D01*
X76731601Y-85788568D01*
X76598642Y-85717500D01*
X76731601Y-85646432D01*
X76950108Y-85467108D01*
X77129432Y-85248601D01*
X77262682Y-84999308D01*
X77344736Y-84728809D01*
X77372443Y-84447500D01*
X77344736Y-84166191D01*
X77262682Y-83895692D01*
X77129432Y-83646399D01*
X76950108Y-83427892D01*
X76731601Y-83248568D01*
X76598642Y-83177500D01*
X76731601Y-83106432D01*
X76950108Y-82927108D01*
X77129432Y-82708601D01*
X77262682Y-82459308D01*
X77344736Y-82188809D01*
X77372443Y-81907500D01*
X77344736Y-81626191D01*
X77262682Y-81355692D01*
X77129432Y-81106399D01*
X76950108Y-80887892D01*
X76731601Y-80708568D01*
X76598642Y-80637500D01*
X76731601Y-80566432D01*
X76950108Y-80387108D01*
X77129432Y-80168601D01*
X77262682Y-79919308D01*
X77344736Y-79648809D01*
X77372443Y-79367500D01*
X77358523Y-79226165D01*
X78105500Y-79226165D01*
X78105500Y-79508835D01*
X78160647Y-79786074D01*
X78268820Y-80047227D01*
X78425863Y-80282259D01*
X78625741Y-80482137D01*
X78860773Y-80639180D01*
X79121926Y-80747353D01*
X79399165Y-80802500D01*
X79681835Y-80802500D01*
X79959074Y-80747353D01*
X80220227Y-80639180D01*
X80455259Y-80482137D01*
X80655137Y-80282259D01*
X80812180Y-80047227D01*
X80920353Y-79786074D01*
X80975500Y-79508835D01*
X80975500Y-79226165D01*
X80920353Y-78948926D01*
X80812180Y-78687773D01*
X80675500Y-78483216D01*
X80675500Y-77027632D01*
X80945500Y-77297632D01*
X80945500Y-78041749D01*
X80940009Y-78097500D01*
X80945500Y-78153251D01*
X80961923Y-78319998D01*
X81026824Y-78533946D01*
X81132216Y-78731123D01*
X81274051Y-78903949D01*
X81317365Y-78939496D01*
X81922650Y-79544782D01*
X81970647Y-79786074D01*
X82078820Y-80047227D01*
X82235863Y-80282259D01*
X82435741Y-80482137D01*
X82670773Y-80639180D01*
X82931926Y-80747353D01*
X83209165Y-80802500D01*
X83491835Y-80802500D01*
X83769074Y-80747353D01*
X84030227Y-80639180D01*
X84265259Y-80482137D01*
X84465137Y-80282259D01*
X84622180Y-80047227D01*
X84730353Y-79786074D01*
X84785500Y-79508835D01*
X84785500Y-79226165D01*
X85725500Y-79226165D01*
X85725500Y-79508835D01*
X85780647Y-79786074D01*
X85888820Y-80047227D01*
X86025501Y-80251785D01*
X86025500Y-81851748D01*
X86020009Y-81907500D01*
X86036757Y-82077551D01*
X86041923Y-82129998D01*
X86106824Y-82343946D01*
X86212216Y-82541123D01*
X86354051Y-82713949D01*
X86397365Y-82749496D01*
X89284547Y-85636680D01*
X89280998Y-85643320D01*
X89244688Y-85763018D01*
X89232428Y-85887500D01*
X89232428Y-88087500D01*
X89244688Y-88211982D01*
X89280998Y-88331680D01*
X89339963Y-88441994D01*
X89419315Y-88538685D01*
X89516006Y-88618037D01*
X89626320Y-88677002D01*
X89746018Y-88713312D01*
X89835501Y-88722125D01*
X89835500Y-92570452D01*
X89773269Y-92501412D01*
X89539920Y-92327359D01*
X89277099Y-92202175D01*
X89129890Y-92157524D01*
X88900000Y-92278845D01*
X88900000Y-93472000D01*
X88920000Y-93472000D01*
X88920000Y-93726000D01*
X88900000Y-93726000D01*
X88900000Y-94919155D01*
X89129890Y-95040476D01*
X89277099Y-94995825D01*
X89539920Y-94870641D01*
X89773269Y-94696588D01*
X89968178Y-94480355D01*
X90037805Y-94363466D01*
X90159525Y-94545632D01*
X90366368Y-94752475D01*
X90609589Y-94914990D01*
X90879842Y-95026932D01*
X91166740Y-95084000D01*
X91459260Y-95084000D01*
X91746158Y-95026932D01*
X92016411Y-94914990D01*
X92259632Y-94752475D01*
X92391487Y-94620620D01*
X92413498Y-94693180D01*
X92472463Y-94803494D01*
X92551815Y-94900185D01*
X92648506Y-94979537D01*
X92758820Y-95038502D01*
X92878518Y-95074812D01*
X93003000Y-95087072D01*
X94703000Y-95087072D01*
X94827482Y-95074812D01*
X94947180Y-95038502D01*
X95057494Y-94979537D01*
X95154185Y-94900185D01*
X95233537Y-94803494D01*
X95292502Y-94693180D01*
X95328812Y-94573482D01*
X95341072Y-94449000D01*
X95341072Y-92749000D01*
X95328812Y-92624518D01*
X95292502Y-92504820D01*
X95233537Y-92394506D01*
X95154185Y-92297815D01*
X95057494Y-92218463D01*
X94947180Y-92159498D01*
X94827482Y-92123188D01*
X94703000Y-92110928D01*
X94023200Y-92110928D01*
X94023200Y-88725572D01*
X95880500Y-88725572D01*
X96004982Y-88713312D01*
X96124680Y-88677002D01*
X96234994Y-88618037D01*
X96331685Y-88538685D01*
X96411037Y-88441994D01*
X96470002Y-88331680D01*
X96506312Y-88211982D01*
X96515125Y-88122500D01*
X97511498Y-88122500D01*
X97589399Y-88186432D01*
X97838692Y-88319682D01*
X98109191Y-88401736D01*
X98320008Y-88422500D01*
X98860992Y-88422500D01*
X99071809Y-88401736D01*
X99342308Y-88319682D01*
X99591601Y-88186432D01*
X99810108Y-88007108D01*
X99989432Y-87788601D01*
X100122682Y-87539308D01*
X100204736Y-87268809D01*
X100232443Y-86987500D01*
X100204736Y-86706191D01*
X100122682Y-86435692D01*
X99989432Y-86186399D01*
X99810108Y-85967892D01*
X99591601Y-85788568D01*
X99462155Y-85719378D01*
X99479727Y-85711930D01*
X99713162Y-85553173D01*
X99911139Y-85351925D01*
X100066051Y-85115921D01*
X100171944Y-84854230D01*
X100182404Y-84796539D01*
X100060415Y-84574500D01*
X98717500Y-84574500D01*
X98717500Y-84594500D01*
X98463500Y-84594500D01*
X98463500Y-84574500D01*
X97120585Y-84574500D01*
X96998596Y-84796539D01*
X97009056Y-84854230D01*
X97114949Y-85115921D01*
X97269861Y-85351925D01*
X97467838Y-85553173D01*
X97701273Y-85711930D01*
X97718845Y-85719378D01*
X97589399Y-85788568D01*
X97511498Y-85852500D01*
X96515125Y-85852500D01*
X96506312Y-85763018D01*
X96470002Y-85643320D01*
X96411037Y-85533006D01*
X96331685Y-85436315D01*
X96234994Y-85356963D01*
X96124680Y-85297998D01*
X96004982Y-85261688D01*
X95880500Y-85249428D01*
X94023200Y-85249428D01*
X94023200Y-84592824D01*
X94057577Y-84479499D01*
X94074000Y-84312752D01*
X94074000Y-84312751D01*
X94079491Y-84257001D01*
X94074000Y-84201249D01*
X94074000Y-84046041D01*
X94079490Y-83990299D01*
X94074000Y-83934557D01*
X94074000Y-83934549D01*
X94057577Y-83767802D01*
X93992676Y-83553854D01*
X93887284Y-83356677D01*
X93745449Y-83183851D01*
X93702141Y-83148309D01*
X92105500Y-81551669D01*
X92105500Y-78146161D01*
X92318163Y-77933498D01*
X92508037Y-77649331D01*
X92638825Y-77333581D01*
X92705500Y-76998383D01*
X92705500Y-76656617D01*
X92638825Y-76321419D01*
X92508037Y-76005669D01*
X92318163Y-75721502D01*
X92076498Y-75479837D01*
X91792331Y-75289963D01*
X91476581Y-75159175D01*
X91141383Y-75092500D01*
X90799617Y-75092500D01*
X90464419Y-75159175D01*
X90148669Y-75289963D01*
X89864502Y-75479837D01*
X89622837Y-75721502D01*
X89432963Y-76005669D01*
X89302175Y-76321419D01*
X89235500Y-76656617D01*
X89235500Y-76998383D01*
X89302175Y-77333581D01*
X89432963Y-77649331D01*
X89622837Y-77933498D01*
X89835501Y-78146162D01*
X89835500Y-81966048D01*
X89830009Y-82021800D01*
X89835500Y-82077551D01*
X89851923Y-82244298D01*
X89916824Y-82458246D01*
X90022216Y-82655423D01*
X90164051Y-82828249D01*
X90207365Y-82863796D01*
X91753200Y-84409632D01*
X91753200Y-84891561D01*
X91733646Y-84875513D01*
X88295500Y-81437369D01*
X88295500Y-80251784D01*
X88432180Y-80047227D01*
X88540353Y-79786074D01*
X88595500Y-79508835D01*
X88595500Y-79226165D01*
X88540353Y-78948926D01*
X88432180Y-78687773D01*
X88275137Y-78452741D01*
X88075259Y-78252863D01*
X87840227Y-78095820D01*
X87579074Y-77987647D01*
X87301835Y-77932500D01*
X87019165Y-77932500D01*
X86741926Y-77987647D01*
X86480773Y-78095820D01*
X86245741Y-78252863D01*
X86045863Y-78452741D01*
X85888820Y-78687773D01*
X85780647Y-78948926D01*
X85725500Y-79226165D01*
X84785500Y-79226165D01*
X84730353Y-78948926D01*
X84622180Y-78687773D01*
X84465137Y-78452741D01*
X84265259Y-78252863D01*
X84030227Y-78095820D01*
X83769074Y-77987647D01*
X83527782Y-77939650D01*
X83215500Y-77627369D01*
X83215500Y-76883243D01*
X83220990Y-76827499D01*
X83215500Y-76771755D01*
X83215500Y-76771748D01*
X83199077Y-76605001D01*
X83134176Y-76391053D01*
X83028784Y-76193877D01*
X82886949Y-76021051D01*
X82843640Y-75985508D01*
X82470739Y-75612608D01*
X82657382Y-75529775D01*
X82844758Y-75397684D01*
X83002764Y-75231576D01*
X83125328Y-75037834D01*
X83207739Y-74823904D01*
X83246831Y-74598007D01*
X83087098Y-74414500D01*
X82207500Y-74414500D01*
X82207500Y-74434500D01*
X81970500Y-74434500D01*
X81970500Y-74005521D01*
X81953715Y-73835100D01*
X81953500Y-73834391D01*
X81953500Y-73069337D01*
X82207500Y-73069337D01*
X82207500Y-74160500D01*
X83087098Y-74160500D01*
X83246831Y-73976993D01*
X83207739Y-73751096D01*
X83125328Y-73537166D01*
X83002764Y-73343424D01*
X82844758Y-73177316D01*
X82657382Y-73045225D01*
X82447837Y-72952228D01*
X82386310Y-72943536D01*
X82207500Y-73069337D01*
X81953500Y-73069337D01*
X81774690Y-72943536D01*
X81713163Y-72952228D01*
X81503618Y-73045225D01*
X81445169Y-73086429D01*
X81256559Y-72985615D01*
X81037899Y-72919285D01*
X80810500Y-72896888D01*
X80583100Y-72919285D01*
X80374402Y-72982593D01*
X80309680Y-72947998D01*
X80189982Y-72911688D01*
X80065500Y-72899428D01*
X79015500Y-72899428D01*
X78891018Y-72911688D01*
X78771320Y-72947998D01*
X78661006Y-73006963D01*
X78564315Y-73086315D01*
X78484963Y-73183006D01*
X78425998Y-73293320D01*
X78389688Y-73413018D01*
X78377428Y-73537500D01*
X78377428Y-75037500D01*
X78389688Y-75161982D01*
X78405501Y-75214110D01*
X78405500Y-78483216D01*
X78268820Y-78687773D01*
X78160647Y-78948926D01*
X78105500Y-79226165D01*
X77358523Y-79226165D01*
X77344736Y-79086191D01*
X77262682Y-78815692D01*
X77129432Y-78566399D01*
X76950108Y-78347892D01*
X76731601Y-78168568D01*
X76598642Y-78097500D01*
X76731601Y-78026432D01*
X76950108Y-77847108D01*
X77129432Y-77628601D01*
X77262682Y-77379308D01*
X77344736Y-77108809D01*
X77372443Y-76827500D01*
X77344736Y-76546191D01*
X77262682Y-76275692D01*
X77129432Y-76026399D01*
X76950108Y-75807892D01*
X76731601Y-75628568D01*
X76598642Y-75557500D01*
X76731601Y-75486432D01*
X76950108Y-75307108D01*
X77129432Y-75088601D01*
X77262682Y-74839308D01*
X77344736Y-74568809D01*
X77372443Y-74287500D01*
X77344736Y-74006191D01*
X77262682Y-73735692D01*
X77129432Y-73486399D01*
X76950108Y-73267892D01*
X76731601Y-73088568D01*
X76598642Y-73017500D01*
X76731601Y-72946432D01*
X76950108Y-72767108D01*
X76972854Y-72739391D01*
X90164019Y-72739391D01*
X90261343Y-73013752D01*
X90410322Y-73263855D01*
X90605231Y-73480088D01*
X90838580Y-73654141D01*
X91101401Y-73779325D01*
X91248610Y-73823976D01*
X91478500Y-73702655D01*
X91478500Y-72509500D01*
X90284686Y-72509500D01*
X90164019Y-72739391D01*
X76972854Y-72739391D01*
X77129432Y-72548601D01*
X77262682Y-72299308D01*
X77344736Y-72028809D01*
X77345051Y-72025609D01*
X90164019Y-72025609D01*
X90284686Y-72255500D01*
X91478500Y-72255500D01*
X91478500Y-71062345D01*
X91732500Y-71062345D01*
X91732500Y-72255500D01*
X91752500Y-72255500D01*
X91752500Y-72509500D01*
X91732500Y-72509500D01*
X91732500Y-73702655D01*
X91962390Y-73823976D01*
X92109599Y-73779325D01*
X92372420Y-73654141D01*
X92605769Y-73480088D01*
X92681534Y-73396034D01*
X92705998Y-73476680D01*
X92764963Y-73586994D01*
X92844315Y-73683685D01*
X92941006Y-73763037D01*
X93051320Y-73822002D01*
X93171018Y-73858312D01*
X93295500Y-73870572D01*
X94028441Y-73870572D01*
X95208509Y-75050641D01*
X95244051Y-75093949D01*
X95361181Y-75190075D01*
X95286581Y-75159175D01*
X94951383Y-75092500D01*
X94609617Y-75092500D01*
X94274419Y-75159175D01*
X93958669Y-75289963D01*
X93674502Y-75479837D01*
X93432837Y-75721502D01*
X93242963Y-76005669D01*
X93112175Y-76321419D01*
X93045500Y-76656617D01*
X93045500Y-76998383D01*
X93112175Y-77333581D01*
X93242963Y-77649331D01*
X93432837Y-77933498D01*
X93674502Y-78175163D01*
X93958669Y-78365037D01*
X94274419Y-78495825D01*
X94609617Y-78562500D01*
X94951383Y-78562500D01*
X95286581Y-78495825D01*
X95602331Y-78365037D01*
X95886498Y-78175163D01*
X96128163Y-77933498D01*
X96318037Y-77649331D01*
X96448825Y-77333581D01*
X96515500Y-76998383D01*
X96515500Y-76656617D01*
X96448825Y-76321419D01*
X96318037Y-76005669D01*
X96128163Y-75721502D01*
X95886498Y-75479837D01*
X95732960Y-75377246D01*
X95828001Y-75406077D01*
X95900973Y-75413264D01*
X96050500Y-75427991D01*
X96106252Y-75422500D01*
X97511498Y-75422500D01*
X97589399Y-75486432D01*
X97722358Y-75557500D01*
X97589399Y-75628568D01*
X97370892Y-75807892D01*
X97191568Y-76026399D01*
X97058318Y-76275692D01*
X96976264Y-76546191D01*
X96948557Y-76827500D01*
X96976264Y-77108809D01*
X97058318Y-77379308D01*
X97191568Y-77628601D01*
X97370892Y-77847108D01*
X97589399Y-78026432D01*
X97722358Y-78097500D01*
X97589399Y-78168568D01*
X97370892Y-78347892D01*
X97191568Y-78566399D01*
X97058318Y-78815692D01*
X96976264Y-79086191D01*
X96948557Y-79367500D01*
X96976264Y-79648809D01*
X97058318Y-79919308D01*
X97191568Y-80168601D01*
X97370892Y-80387108D01*
X97589399Y-80566432D01*
X97722358Y-80637500D01*
X97589399Y-80708568D01*
X97370892Y-80887892D01*
X97191568Y-81106399D01*
X97058318Y-81355692D01*
X96976264Y-81626191D01*
X96948557Y-81907500D01*
X96976264Y-82188809D01*
X97058318Y-82459308D01*
X97191568Y-82708601D01*
X97370892Y-82927108D01*
X97589399Y-83106432D01*
X97718845Y-83175622D01*
X97701273Y-83183070D01*
X97467838Y-83341827D01*
X97269861Y-83543075D01*
X97114949Y-83779079D01*
X97009056Y-84040770D01*
X96998596Y-84098461D01*
X97120585Y-84320500D01*
X98463500Y-84320500D01*
X98463500Y-84300500D01*
X98717500Y-84300500D01*
X98717500Y-84320500D01*
X100060415Y-84320500D01*
X100182404Y-84098461D01*
X100171944Y-84040770D01*
X100066051Y-83779079D01*
X99911139Y-83543075D01*
X99713162Y-83341827D01*
X99479727Y-83183070D01*
X99462155Y-83175622D01*
X99591601Y-83106432D01*
X99810108Y-82927108D01*
X99989432Y-82708601D01*
X100122682Y-82459308D01*
X100204736Y-82188809D01*
X100232443Y-81907500D01*
X100204736Y-81626191D01*
X100122682Y-81355692D01*
X99989432Y-81106399D01*
X99810108Y-80887892D01*
X99591601Y-80708568D01*
X99458642Y-80637500D01*
X99591601Y-80566432D01*
X99810108Y-80387108D01*
X99989432Y-80168601D01*
X100122682Y-79919308D01*
X100204736Y-79648809D01*
X100232443Y-79367500D01*
X100204736Y-79086191D01*
X100122682Y-78815692D01*
X99989432Y-78566399D01*
X99810108Y-78347892D01*
X99591601Y-78168568D01*
X99458642Y-78097500D01*
X99591601Y-78026432D01*
X99810108Y-77847108D01*
X99989432Y-77628601D01*
X100122682Y-77379308D01*
X100204736Y-77108809D01*
X100232443Y-76827500D01*
X100204736Y-76546191D01*
X100122682Y-76275692D01*
X99989432Y-76026399D01*
X99810108Y-75807892D01*
X99591601Y-75628568D01*
X99458642Y-75557500D01*
X99591601Y-75486432D01*
X99810108Y-75307108D01*
X99989432Y-75088601D01*
X100122682Y-74839308D01*
X100204736Y-74568809D01*
X100232443Y-74287500D01*
X100204736Y-74006191D01*
X100122682Y-73735692D01*
X99989432Y-73486399D01*
X99810108Y-73267892D01*
X99591601Y-73088568D01*
X99458642Y-73017500D01*
X99591601Y-72946432D01*
X99810108Y-72767108D01*
X99989432Y-72548601D01*
X100122682Y-72299308D01*
X100204736Y-72028809D01*
X100232443Y-71747500D01*
X100204736Y-71466191D01*
X100122682Y-71195692D01*
X99989432Y-70946399D01*
X99810108Y-70727892D01*
X99591601Y-70548568D01*
X99458642Y-70477500D01*
X99591601Y-70406432D01*
X99810108Y-70227108D01*
X99989432Y-70008601D01*
X100122682Y-69759308D01*
X100204736Y-69488809D01*
X100232443Y-69207500D01*
X100204736Y-68926191D01*
X100122682Y-68655692D01*
X99989432Y-68406399D01*
X99810108Y-68187892D01*
X99591601Y-68008568D01*
X99342308Y-67875318D01*
X99071809Y-67793264D01*
X98860992Y-67772500D01*
X98320008Y-67772500D01*
X98109191Y-67793264D01*
X97838692Y-67875318D01*
X97589399Y-68008568D01*
X97370892Y-68187892D01*
X97191568Y-68406399D01*
X97058318Y-68655692D01*
X96976264Y-68926191D01*
X96948557Y-69207500D01*
X96976264Y-69488809D01*
X97058318Y-69759308D01*
X97191568Y-70008601D01*
X97370892Y-70227108D01*
X97589399Y-70406432D01*
X97722358Y-70477500D01*
X97589399Y-70548568D01*
X97370892Y-70727892D01*
X97191568Y-70946399D01*
X97058318Y-71195692D01*
X96976264Y-71466191D01*
X96948557Y-71747500D01*
X96976264Y-72028809D01*
X97058318Y-72299308D01*
X97191568Y-72548601D01*
X97370892Y-72767108D01*
X97589399Y-72946432D01*
X97722358Y-73017500D01*
X97589399Y-73088568D01*
X97511498Y-73152500D01*
X96520632Y-73152500D01*
X95633572Y-72265441D01*
X95633572Y-71532500D01*
X95621312Y-71408018D01*
X95585002Y-71288320D01*
X95526037Y-71178006D01*
X95446685Y-71081315D01*
X95349994Y-71001963D01*
X95239680Y-70942998D01*
X95119982Y-70906688D01*
X94995500Y-70894428D01*
X93295500Y-70894428D01*
X93171018Y-70906688D01*
X93051320Y-70942998D01*
X92941006Y-71001963D01*
X92844315Y-71081315D01*
X92764963Y-71178006D01*
X92705998Y-71288320D01*
X92681534Y-71368966D01*
X92605769Y-71284912D01*
X92372420Y-71110859D01*
X92109599Y-70985675D01*
X91962390Y-70941024D01*
X91732500Y-71062345D01*
X91478500Y-71062345D01*
X91248610Y-70941024D01*
X91101401Y-70985675D01*
X90838580Y-71110859D01*
X90605231Y-71284912D01*
X90410322Y-71501145D01*
X90261343Y-71751248D01*
X90164019Y-72025609D01*
X77345051Y-72025609D01*
X77372443Y-71747500D01*
X77344736Y-71466191D01*
X77262682Y-71195692D01*
X77129432Y-70946399D01*
X76997024Y-70785059D01*
X77084994Y-70738037D01*
X77181685Y-70658685D01*
X77261037Y-70561994D01*
X77320002Y-70451680D01*
X77356312Y-70331982D01*
X77368572Y-70207500D01*
X77368572Y-68207500D01*
X77356312Y-68083018D01*
X77320002Y-67963320D01*
X77261037Y-67853006D01*
X77181685Y-67756315D01*
X77084994Y-67676963D01*
X76974680Y-67617998D01*
X76854982Y-67581688D01*
X76730500Y-67569428D01*
X74730500Y-67569428D01*
X74606018Y-67581688D01*
X74486320Y-67617998D01*
X74376006Y-67676963D01*
X74279315Y-67756315D01*
X74199963Y-67853006D01*
X74140998Y-67963320D01*
X74104688Y-68083018D01*
X74092428Y-68207500D01*
X74092428Y-70207500D01*
X74104688Y-70331982D01*
X74140998Y-70451680D01*
X74199963Y-70561994D01*
X74279315Y-70658685D01*
X74376006Y-70738037D01*
X74463976Y-70785059D01*
X74331568Y-70946399D01*
X74198318Y-71195692D01*
X74116264Y-71466191D01*
X74088557Y-71747500D01*
X72047500Y-71747500D01*
X72047500Y-55364500D01*
X78270500Y-55364500D01*
X78295276Y-55362060D01*
X78319101Y-55354833D01*
X78341057Y-55343097D01*
X78360303Y-55327303D01*
X78376097Y-55308057D01*
X78387833Y-55286101D01*
X78395060Y-55262276D01*
X78397500Y-55237500D01*
X78397500Y-53952500D01*
X82062428Y-53952500D01*
X82062428Y-55252500D01*
X82074688Y-55376982D01*
X82110998Y-55496680D01*
X82169963Y-55606994D01*
X82249315Y-55703685D01*
X82346006Y-55783037D01*
X82456320Y-55842002D01*
X82576018Y-55878312D01*
X82700500Y-55890572D01*
X84000500Y-55890572D01*
X84124982Y-55878312D01*
X84244680Y-55842002D01*
X84354994Y-55783037D01*
X84451685Y-55703685D01*
X84531037Y-55606994D01*
X84590002Y-55496680D01*
X84626312Y-55376982D01*
X84638572Y-55252500D01*
X84638572Y-55034516D01*
X84711747Y-55211176D01*
X84852375Y-55421640D01*
X85031360Y-55600625D01*
X85241824Y-55741253D01*
X85475679Y-55838119D01*
X85723939Y-55887500D01*
X85977061Y-55887500D01*
X86225321Y-55838119D01*
X86459176Y-55741253D01*
X86669640Y-55600625D01*
X86848625Y-55421640D01*
X86989253Y-55211176D01*
X87086119Y-54977321D01*
X87135500Y-54729061D01*
X87135500Y-54475939D01*
X87145500Y-54475939D01*
X87145500Y-54729061D01*
X87194881Y-54977321D01*
X87291747Y-55211176D01*
X87432375Y-55421640D01*
X87611360Y-55600625D01*
X87821824Y-55741253D01*
X88055679Y-55838119D01*
X88303939Y-55887500D01*
X88557061Y-55887500D01*
X88805321Y-55838119D01*
X89039176Y-55741253D01*
X89249640Y-55600625D01*
X89362238Y-55488027D01*
X90264578Y-55488027D01*
X90317966Y-55716701D01*
X90547874Y-55822595D01*
X90794024Y-55881602D01*
X91046955Y-55891452D01*
X91296949Y-55851770D01*
X91534396Y-55764078D01*
X91623034Y-55716701D01*
X91676422Y-55488027D01*
X90970500Y-54782105D01*
X90264578Y-55488027D01*
X89362238Y-55488027D01*
X89428625Y-55421640D01*
X89569253Y-55211176D01*
X89666119Y-54977321D01*
X89701040Y-54801756D01*
X89721230Y-54928949D01*
X89808922Y-55166396D01*
X89856299Y-55255034D01*
X90084973Y-55308422D01*
X90790895Y-54602500D01*
X91150105Y-54602500D01*
X91856027Y-55308422D01*
X92084701Y-55255034D01*
X92190595Y-55025126D01*
X92249602Y-54778976D01*
X92259452Y-54526045D01*
X92219770Y-54276051D01*
X92132078Y-54038604D01*
X92084701Y-53949966D01*
X91856027Y-53896578D01*
X91150105Y-54602500D01*
X90790895Y-54602500D01*
X90084973Y-53896578D01*
X89856299Y-53949966D01*
X89750405Y-54179874D01*
X89699144Y-54393711D01*
X89666119Y-54227679D01*
X89569253Y-53993824D01*
X89428625Y-53783360D01*
X89362238Y-53716973D01*
X90264578Y-53716973D01*
X90970500Y-54422895D01*
X91676422Y-53716973D01*
X91623034Y-53488299D01*
X91393126Y-53382405D01*
X91146976Y-53323398D01*
X90894045Y-53313548D01*
X90644051Y-53353230D01*
X90406604Y-53440922D01*
X90317966Y-53488299D01*
X90264578Y-53716973D01*
X89362238Y-53716973D01*
X89249640Y-53604375D01*
X89039176Y-53463747D01*
X88805321Y-53366881D01*
X88557061Y-53317500D01*
X88303939Y-53317500D01*
X88055679Y-53366881D01*
X87821824Y-53463747D01*
X87611360Y-53604375D01*
X87432375Y-53783360D01*
X87291747Y-53993824D01*
X87194881Y-54227679D01*
X87145500Y-54475939D01*
X87135500Y-54475939D01*
X87086119Y-54227679D01*
X86989253Y-53993824D01*
X86848625Y-53783360D01*
X86669640Y-53604375D01*
X86459176Y-53463747D01*
X86225321Y-53366881D01*
X85977061Y-53317500D01*
X85723939Y-53317500D01*
X85475679Y-53366881D01*
X85241824Y-53463747D01*
X85031360Y-53604375D01*
X84852375Y-53783360D01*
X84711747Y-53993824D01*
X84638572Y-54170484D01*
X84638572Y-53952500D01*
X84626312Y-53828018D01*
X84590002Y-53708320D01*
X84531037Y-53598006D01*
X84451685Y-53501315D01*
X84354994Y-53421963D01*
X84244680Y-53362998D01*
X84124982Y-53326688D01*
X84000500Y-53314428D01*
X82700500Y-53314428D01*
X82576018Y-53326688D01*
X82456320Y-53362998D01*
X82346006Y-53421963D01*
X82249315Y-53501315D01*
X82169963Y-53598006D01*
X82110998Y-53708320D01*
X82074688Y-53828018D01*
X82062428Y-53952500D01*
X78397500Y-53952500D01*
X78397500Y-49014500D01*
X95923500Y-49014500D01*
X95923500Y-55237500D01*
G37*
%TD.AperFunction*%
%TD*%
M02*
